<svg xmlns="http://www.w3.org/2000/svg" viewBox="0 0 595.28 595.28" xml:space="preserve">
  <path fill="#F68945" d="M268.6 256.98a9 9 0 0 0-7.8 9.2l-.28-.1c-.39-.11-.8-.2-1.22-.2h-9.76c-.16 0-.32.02-.47.03a8 8 0 0 0-1.34.19 9.02 9.02 0 0 0-10.77-9.03l-.63.12c-.07.26-.11.52-.16.78a9.03 9.03 0 0 0 2.05 7.46l.45.52c1.3 1.3 2.9 2.1 4.58 2.45l.4.07-.02.04-.38.4-2.64 2.93a5.54 5.54 0 0 1-4.11 1.82l1.12.02c.86 0 1.55.7 1.55 1.54v4.48c0 .96-.78 1.74-1.74 1.74h18.6c1.15 0 2.08.93 2.08 2.08l.06 57.83a3.6 3.6 0 0 1-1.93 3.24 12.83 12.83 0 0 0 7.23-11.54v-62.99c0-.52-.1-1.02-.28-1.48a9.06 9.06 0 0 0 9-11.39 9.14 9.14 0 0 0-3.59-.21zm-14.47 17a2.17 2.17 0 1 1 0-4.35 2.17 2.17 0 0 1 0 4.34zm-3.4 94.71a10.2 10.2 0 0 0-.48 2.43 18.08 18.08 0 0 0-4.26-1.4l-1.84-29.2h-34.43a4.98 4.98 0 0 0-4.97 4.98v8.7a4.42 4.42 0 0 1-4.43 4.43h-2.87c-.1 0-.19.02-.28.03-1.15.07-2.2.55-2.96 1.31a13.66 13.66 0 0 0-3.4-5.46h1.62v-27.36c0-.9.1-1.79.28-2.64h-.3a17.67 17.67 0 0 1-7.07-1.48v-7.02h13.56a12.78 12.78 0 0 1 6.38-1.7h39.57a6.84 6.84 0 0 0 6.84-6.85v28.02a5 5 0 0 1-.95 2.93v30.28zm-.52 14.47c0 .98.14 1.93.4 2.83l-3.62-.57-.4-6.41a11.55 11.55 0 0 0 3.62 2.98v1.17zm-56.4 1.4.08 1.66-1.04.17c.37-.59.7-1.2.97-1.84zm-30.12 42.56 6.44 13.13-6.44 13.12-6.43-13.12 6.43-13.13zm271.11-5.4-6.43 13.12-6.44-13.13 6.44-13.12 6.43 13.12zM173.1 202a13.21 13.21 0 0 0-3.23-5.27l-3.7 3.7a8.53 8.53 0 0 1-12.05 12.06l-3.03 3.02a13.28 13.28 0 0 0 22-13.5zm-3.13 1.05a1.26 1.26 0 1 1 0-2.51 1.26 1.26 0 0 1 0 2.51zm-25.13 18.1 6.25-5.64-2.78 5.64h-3.47zm211.98-39.28a8.53 8.53 0 0 1-.22-11.82l-3.7-3.7a13.2 13.2 0 0 0-3.86 8.54 13.26 13.26 0 0 0 22.63 10.23l-3.02-3.02a8.53 8.53 0 0 1-11.83-.22zm-4.02-9.2a1.26 1.26 0 1 1 0-2.52 1.26 1.26 0 0 1 0 2.51zm25.13 18.1h-3.48l-2.78-5.65 6.26 5.64zM253.49 147.9a10.93 10.93 0 0 0 4.29-12.49 10.9 10.9 0 0 0-2.67-4.35l-3.06 3.06a7.04 7.04 0 0 1-9.95 9.95l-2.5 2.5a10.96 10.96 0 0 0 13.89 1.33zm1.7-13.7a1.04 1.04 0 1 1 0 2.08 1.04 1.04 0 0 1 0-2.08zm-17.88 17.02h-2.87l5.17-4.65-2.3 4.65z"/>
  <path fill="#93583C" d="M138.2 316.18v-35.01a3.44 3.44 0 0 1 6.88 0v38.38h8.83c.9 0 1.79.1 2.65.27v-84.54c2.56-.08 5.1-.21 7.6-.46 10.9-1.06 21.18-4.14 29.95-12.91a41.51 41.51 0 0 0 10.08-16.15c-2.35-.44-5.8-1.5-8.33-4.05l-.28-.3h-3.16c-1.58 0-3.11-.22-4.58-.6a26.28 26.28 0 0 1-5.88 8.95c-4.14 4.13-9 6.32-14.19 7.46a13.28 13.28 0 0 1-16.69-1.7l-2.78 5.63h-3.47l6.25-5.64 3.03-3.02 2.45-2.45v-71.06h-21.62a17.16 17.16 0 0 1-4.17 2.87v94.06a13.75 13.75 0 1 1 0 27.5v45.39a16.7 16.7 0 0 1 4.38 3.1c1.3 1.3 2.29 2.78 3.05 4.28zm3.44-88.1a3.44 3.44 0 0 1-6.87 0v-50.22a3.44 3.44 0 0 1 6.87 0v50.22zm-25.2-23.49v-46.97a3.44 3.44 0 0 1 6.87 0v46.97a3.44 3.44 0 0 1-6.88 0zm351.92 110v-33.42a3.44 3.44 0 0 1 6.88 0v38.38h9.73c.6 0 1.17.05 1.75.13v-14.11c-4.78-5.44-4.94-13.35-4.94-13.35s2.13.04 4.94.74V277.4c-4.78-5.44-4.94-13.34-4.94-13.34s2.13.04 4.94.74v-6.6c13.71-.4 26.77-2.58 37.55-13.36a41.36 41.36 0 0 0 8.1-11.36c-.25-.23-.5-.44-.75-.69l-.38-.42h-11.92c-2.09 0-4.1-.37-5.97-1.01-.39.45-.8.89-1.23 1.32-7.03 7.02-16.1 8.45-25.4 8.6v-99.84h-25.78v166.92c1.83.82 3.69 1.94 5.27 3.53a15.6 15.6 0 0 1 2.15 2.71zm-3.44-86.5v-50.23a3.44 3.44 0 0 1 6.88 0v50.22a3.44 3.44 0 0 1-6.88 0zm-18.33-23.5v-46.97a3.44 3.44 0 0 1 6.88 0v46.97a3.44 3.44 0 0 1-6.88 0zM44.62 413.85H425.8l-1.44 2.94c-24.8.1-25.01 6.49-50.2 6.49-25.38 0-25.38-6.5-50.76-6.5s-25.38 6.5-50.75 6.5c-25.38 0-25.38-6.5-50.75-6.5-25.38 0-25.38 6.5-50.76 6.5s-25.38-6.5-50.76-6.5-25.38 6.5-50.76 6.5c-14.34 0-20.1-2.06-27.39-3.86h-.01c.05-.25.13-.48.2-.72l.11-.41a15.4 15.4 0 0 1 2.1-4.44zm509.84 7.07h-.01c-7.2-1.8-13.81-4.14-28.01-4.14-25.39 0-25.39 6.5-50.77 6.5-22.55 0-25.08-5.13-43.17-6.27l-1.55-3.16h121.63c1.17 1.8 1.88 4.1 1.88 7.07z"/>
  <path fill="#6C3B18" d="M197.17 359.6a4.56 4.56 0 0 1 0-.94l.28-.03h2.88a4.42 4.42 0 0 0 4.42-4.42v-8.31h10.9v8.3a4.42 4.42 0 0 1-4.42 4.43h-2.87a4.6 4.6 0 0 0-4.6 4.75l.72 15.66.24 5.43-3.95.64-.74-5.21c2.44.54 4.22.58 4.22.58s-.16-8.65-5.6-14.08c-.19-.19-.4-.36-.6-.54l-.88-6.26zm59.94-15.48 1.13 17.8c.71-.15 1.45-.24 2.21-.24 1.06 0 2.07-.16 3.03-.45v-28.19c0 4.73-2.56 8.85-6.37 11.08zm3.41-78.03v-6.9c0-3.8 1.34-6.57 5.56-7.08 1.16-.14 2.34-.21 3.54-.26 2.61-.1 5.28-.03 7.94.06 2.43.1 4.85.2 7.19.2 5.47 0 11.6-.27 12.93-6.97.96-4.87.17-10.45.17-15.4 0-2.47-3.84-2.47-3.84 0 0 5.2 2.31 17.39-4.73 18.54-1.6.26-3.27.34-4.98.35v-11.98c0-2.48-3.84-2.47-3.84 0v11.9l-3.6-.12-5.6-.2v-7.5c0-2.46-3.84-2.46-3.84 0v7.44c-2.48.04-4.91.37-6.9 1.62v-2.92c0-2.47-3.83-2.47-3.83 0v19.02h2.61c.43 0 .83.08 1.22.2zM218 251.5l.05.02c2.12.54 4.52.6 6.8.6 5.38 0 11.14-.57 16.58-.2.7.05 1.4.11 2.1.2 2.07.24 3.44 1.04 4.3 2.24.9 1.24 1.25 2.9 1.25 4.83v6.72c.15 0 .3-.03.47-.03h3.36v-19c0-2.48-3.83-2.48-3.83 0v2.91a10.87 10.87 0 0 0-4.52-1.46 19.64 19.64 0 0 0-2.38-.16v-7.43c0-2.47-3.84-2.47-3.84 0v7.5l-9.2.3v-11.9c0-2.46-3.84-2.47-3.84 0v12a35.6 35.6 0 0 1-4.55-.3l-.43-.06c-7.05-1.15-4.73-13.34-4.73-18.54 0-2.46-3.84-2.47-3.84 0 0 4.95-.8 10.53.17 15.4.77 3.88 3.15 5.6 6.08 6.36zm-40.15 65.34.02.03c.22.32.44.62.68.92l.23.28.53.62.28.3a19.65 19.65 0 0 0 1.46 1.37l.24.2c.25.2.5.4.77.59l.14.1c.99.7 2.04 1.3 3.15 1.78v-7.02h-8.07l.57.83zm57.85-43.18a3.56 3.56 0 0 0-3.58 3.58v.62a3.57 3.57 0 0 0 3.58 3.58h1.74c.96 0 1.74-.78 1.74-1.74v-4.47c0-.86-.7-1.55-1.54-1.55l-1.94-.02zm16.27-1.86a2.17 2.17 0 1 0 4.34 0 2.17 2.17 0 0 0-4.34 0zm-196.8-26.74a92.92 92.92 0 0 1-1.09-12.19c3.05-.89 6.59-2.46 9.38-5.25l.4-.44h7.15c-.22 11.1.24 22.34 8.58 30.7 7 7.02 16.09 8.46 25.4 8.6v-127.5h17.04c-.8 2.99-.85 5.3-.85 5.3s4.87-.08 9.6-2.43v94.06a13.75 13.75 0 1 1 0 27.5v45.38c-4.76-2.39-9.7-2.49-9.7-2.49s.15 7.82 4.84 13.25H107.9l-.4.02.04-.6s-1.01.03-2.55.27V283.4h-.04c-9.6-.29-18.85-1.45-27.24-5.81a32.86 32.86 0 0 0-.47-7.12c3.28.96 5.92 1.01 5.92 1.01s-.16-8.64-5.59-14.07c-3.07-3.07-7.17-4.46-10.15-5.08a32.68 32.68 0 0 0-12.26-7.27zm61.26-40.47a3.44 3.44 0 0 0 6.88 0v-46.97a3.44 3.44 0 0 0-6.88 0v46.97zm25.21 73.14a3.44 3.44 0 0 0-3.44 3.44v35.01a22.1 22.1 0 0 1 1.37 3.37h5.5v-38.38c0-1.9-1.53-3.44-3.43-3.44zm-3.44-46.21c1.9 0 3.44-1.54 3.44-3.44v-50.22a3.44 3.44 0 0 0-6.87 0v50.22c0 1.9 1.53 3.44 3.43 3.44zm253.53 54.12c-4.2-6.68-6.1-13.98-6.94-21.61 2.76-.38 7.8-1.55 11.4-5.13l.32-.37h4.75c.24 4.58.92 9.04 2.56 13.18a26.51 26.51 0 0 0 5.22 8.34l.7.75c5.23 5.23 11.6 7.36 18.37 8.16 2.31.28 4.67.4 7.04.44V141.43h17.54c-.15 1.14-.17 1.87-.17 1.87s4.05-.08 8.35-1.87h.06v166.92c-4.46-1.97-8.8-2.06-8.8-2.06s.16 7.83 4.87 13.26h-18.03l-.4.02c.04-.37.04-.6.04-.6s-1.42.03-3.46.42v-13.07c-1.88-.06-3.75-.15-5.6-.3a65.41 65.41 0 0 1-14.12-2.45 44.78 44.78 0 0 1-6.4-2.49 41.33 41.33 0 0 1-11.44-8.13 42.04 42.04 0 0 1-5.86-7.31zm54.86-81.05a3.44 3.44 0 0 0 6.88 0v-46.97a3.44 3.44 0 0 0-6.88 0v46.97zm21.77 76.58v33.42a20.9 20.9 0 0 1 2.28 4.96h4.6v-38.38a3.44 3.44 0 0 0-6.88 0zm0-49.65c1.9 0 3.44-1.54 3.44-3.44v-50.22a3.44 3.44 0 0 0-6.88 0v50.22c0 1.9 1.54 3.44 3.44 3.44zm92.68 161.36H35.36A10.34 10.34 0 0 0 25 403.24v.28a10.33 10.33 0 0 0 10.35 10.34h390.43l2.58-5.26 2.58 5.26h130.1a10.34 10.34 0 0 0 10.34-10.34v-.28c0-5.71-4.63-10.35-10.35-10.35zm-382.72-187.6-3.6-2.25-1.63-1.03c.34 1.07.55 2.17.62 3.27h4.6zm-12.39 6.98a8.53 8.53 0 0 0 .23-11.82l-12.05 12.05a8.53 8.53 0 0 0 11.82-.23zm4.03-9.2a1.26 1.26 0 1 0 0-2.52 1.26 1.26 0 0 0 0 2.51zm179.7-31.44-5.23 3.27h4.6c.08-1.11.28-2.2.63-3.27zm18.98 10.48-12.05-12.05a8.53 8.53 0 0 0 12.05 12.05zm-15.85-9.44a1.26 1.26 0 1 0 0-2.5 1.26 1.26 0 0 0 0 2.5zm-90.7-34.54-4.31-2.7c.28.88.45 1.79.51 2.7h3.8zm-10.22 5.77a7.04 7.04 0 0 0 .18-9.76l-9.95 9.95a7.05 7.05 0 0 0 9.77-.19zm3.32-7.6a1.04 1.04 0 1 0 0-2.08 1.04 1.04 0 0 0 0 2.08z"/>
  <path fill="#FFF" d="m258.11 283.52.07 57.83a3.6 3.6 0 0 1-1.94 3.24l-.05.03-.07.03c-.35.17-.7.31-1.07.45l-.26.1-1.02.3-.35.08c-.33.08-.67.13-1.02.18l-.36.05c-.43.05-.86.08-1.3.08v-7.48a5 5 0 0 0 .95-2.93v-54.04h4.34c1.15 0 2.08.93 2.08 2.08zm-40.07-130.4-1.39 1.6c.49.36.95.73 1.4 1.12v-2.71zm-61.48 82.16v8.3l7.6-8.76c-2.5.24-5.04.38-7.6.46zm105.7-113.46V102.2l-19 21.9v18.83l5.12-5.12 13.88-16zm-74.41 79a18.27 18.27 0 0 1-7.65-4.1l-5.47 6.3 3.59 2.25h-4.61a13.24 13.24 0 0 1-5.94 11.95c5.2-1.14 10.05-3.33 14.2-7.46 2.7-2.7 4.58-5.73 5.88-8.95zm98.49-120.9c.18 2.8-.16 5.7-.86 8.42-2.21-1.22-5.56-5.24-5.56-5.24l-4 3.54-.09-.07-8.39 9.66v19.62l22.72-26.17a58.88 58.88 0 0 1-3.82-9.75zM86.07 305.16l-6.86 7.9 4.58 14.35 4.89-5.63-2.6-16.62zM63.11 331.6l7.98 10.42 3.15-3.63-6.6-12.02-4.54 5.23zm35.02-20.72 4.75-5.48.14-3.18c.66.01 1.32.04 1.98.07v-18.9h-.05l-17 19.6c3.2-.45 6.48-.71 9.8-.77l.38 8.66zM49.55 347.2l10.68 7.31 2.77-3.19-9.44-8.74-4.01 4.62zM20.2 381.03l16.68.41 5.08-5.85-14.9-2.47-6.86 7.9zm14.68-16.9 13.93 3.56 3.55-4.09-12.54-5.17-4.94 5.7zm182.26 4c.3.01.6.06.9.12v-3.12a9.3 9.3 0 0 1-.98-.59l-12.58 14.5.24 5.43 8.02-1.29a3.78 3.78 0 0 1-.5-3.44c.56-1.4 2.16-2.18 3.67-2.16.73 0 1.45.17 2.14.43v-2.13l-.53-.23a8.16 8.16 0 0 1-3.06-2.13c-.78-.98-1.16-2.36-.67-3.51.54-1.25 2-1.92 3.35-1.88zm210.64-226.7h-17.03l-1.71 1.97v5c4.53-.02 9.04-.2 13.51-.95l5.23-6.02zm-18.74 19.83v1.76l1.55-1.78-1.55.02zM200.77 385.11l-.22-1.55-1.6 1.85 1.82-.3zm44.11-33-.4-6.22-.33-5.37h-34.43a4.98 4.98 0 0 0-4.98 4.98v.4h38.51v8.1l1.63-1.88zm138.85-159.93.1-.12v-19.62l-11.52 13.27 5.6 5.05h-3.47l-2.36-4.79-3.82 4.4c.5.13 1 .26 1.5.37a66.8 66.8 0 0 0 13.97 1.44zM359 201.04l-3.52 4.05c1.83.21 5.08.82 8.19 2.49a18.34 18.34 0 0 1 3.05-4.32 58.46 58.46 0 0 1-7.72-2.22zm-95.52 110.03v19.63l96.78-111.5a14.4 14.4 0 0 1-.94-.86c-3.74-3.73-4.84-9.05-5.17-11.71l-90.67 104.44zm120.35 42.19c-.16.4-.36.78-.62 1.12a9.41 9.41 0 0 1-3.44 2.58c-3.1 1.56-7.1 3.02-10.65 2.88l.12 11.64c1.68-3.7 5.03-7.45 7.49-9.1 1.46-.98 3.1-1.8 4.86-1.88.22 0 .44 0 .65.02l1.6-1.83v-5.44zm-14.58 19.89.03 2.3 2.04-2.35c-.7.06-1.4.08-2.07.05zm65.9-92.3-7.04 8.11c2.31.28 4.67.4 7.04.44v-8.55zm-19.72 22.72-6.4 7.36v18.72l20.52-23.62a65.4 65.4 0 0 1-14.12-2.46zm-31.6 36.4-14.75 16.99.02 1.58a21.9 21.9 0 0 1 6.52-8.46 8.59 8.59 0 0 1 4.28-1.8c1.56-.1 3.26.6 3.93 2.01v-10.32zm-17.25 19.88-4.55 5.23a25.05 25.05 0 0 1 4.51 6.4l.04-11.63zm135.61-139.33c-5.04 2.35-10.07 2.45-10.07 2.45s.13-5.86 3.07-11.27l-8.47 9.76v18.72l15.99-18.43c-.19-.4-.36-.81-.52-1.23zM354.92 373.27c1.07.35 2.1.9 3.05 1.5 1.95 1.22 4.43 3.6 6.42 6.32l2.13-2.47.02-5.46c-3.2.2-6.74-.73-9.84-1.94l-1.78 2.05zm3.77-288.88a23.34 23.34 0 0 0 5.3.84l-1.2-.52c-2.93-1.36-4.74-3.14-.96-4.6-3.04-1.3-6.47-1.58-8.77-4.3.93 2.38 1.3 4.85 1.12 7.4a13.98 13.98 0 0 1-9.87-6.5c.14 3.52-.45 7.16-1.54 10.5-3.52-2.56-5.15-6.81-5.86-1.08-.95-.3-1.88-.68-2.78-1.13v32.72l25.17-28.99c-.57-2.5-.6-4.34-.6-4.34zM218 251.5c-2.93-.76-5.31-2.48-6.08-6.36-.96-4.87-.17-10.45-.17-15.4 0-2.47 3.84-2.47 3.84 0 0 5.2-2.31 17.39 4.73 18.54l.43.06 4.55-5.24v-6.45c0-2.48 3.84-2.47 3.84 0v2.03l99.82-115V84.04l-.45.52c.15 1.53.22 3.07.2 4.58a8.78 8.78 0 0 1-2.63-1.78l-58.63 67.54v20.76a2.6 2.6 0 1 1-5.18 0v-14.79l-105.7 121.76v37.2c.59.11 1.16.27 1.72.46L218 251.5zm146.48-137.96c-.15-.99-.25-1.99-.3-3l-2.12 2.43c.74.14 1.55.32 2.42.57zm-5.3 2.76-25.04 28.83v9.81l27.56-31.74a23.25 23.25 0 0 1-2.52-6.9zM185.34 323.03a17.7 17.7 0 0 1-3.15-1.77l-.14-.11-.44-.32-13.46 15.5c1.3 1.8 2.52 3.67 3.67 5.58l15.71-18.1c-.75-.2-1.48-.47-2.19-.78zm52.88-57.6a9.03 9.03 0 0 1-2.05-7.46l-50.38 58.04h8.52l43.9-50.58zm5.3-13.32c-.7-.08-1.4-.14-2.1-.19l-4.46 5.15a9.05 9.05 0 0 1 7.12 1.6l3.75-4.31c-.87-1.2-2.24-2-4.32-2.25zm85.43-91.2v-9.81l-84.4 97.23c1.62.2 3.17.61 4.52 1.46v-2.92c0-2.47 3.83-2.47 3.83 0v1.64l76.05-87.6zm75.08 322.5H331.7a4.58 4.58 0 0 1 0-9.17h56.14a4.58 4.58 0 0 0 4.58-4.59v-3.43a4.58 4.58 0 0 0-4.58-4.59h-69.5c-6.54 0-11.85-5.3-11.85-11.85 0-6.54-5.3-11.85-11.85-11.85h-51.92a7.27 7.27 0 1 0 0 14.53h36.27a14.9 14.9 0 0 1 0 29.8h-6.3a5.16 5.16 0 0 0 0 10.3h131.34a4.58 4.58 0 1 0 0-9.16zm16.4-276.26c1.6.75 3.19 1.76 4.56 3.14 5.16 5.15 5.31 13.36 5.31 13.36s-3.68-.07-7.65-1.66v13.17c.82.54 1.61 1.16 2.34 1.9a17.02 17.02 0 0 1 3.74 5.96l6.42-7.4v-57.08L415.4 201.3a18.42 18.42 0 0 1 5.05 5.85zm-11.4 58.55 14.44-16.63c-.84-.3-1.7-.66-2.57-1.11a18.32 18.32 0 0 1-16.6 10.57h-3.04c.24 4.58.92 9.04 2.56 13.18l5.22-6zm77.99-95.22-.3.89v4.86l2.27-2.62a21.5 21.5 0 0 1-1.97-3.13zm-103.23 88.05H380c-4.16 0-7.98-1.4-11.05-3.73l-68.02 78.35.45.41a13.52 13.52 0 0 1 3.01 4.86h11.06c1.98 0 3.82.57 5.38 1.54 3.63-1.9 7.48-1.98 7.48-1.98s-.1 4.89-2.79 8.84c.11.6.18 1.21.18 1.84v2.78c0 2.72 1.07 5.2 2.8 7.03l21.8-25.11 5.81-6.7c-.03-.5.06-1 .3-1.45a2.82 2.82 0 0 1 2.1-1.3l4.5-5.2c-.93-.45-1.8-.99-2.59-1.52a6.03 6.03 0 0 1-1.95-1.95c-.45-.8-.55-1.87-.04-2.64.55-.84 1.7-1.14 2.68-.94.99.2 1.83.83 2.56 1.52.62.59 1.32 1.5 1.93 2.55l1.38-1.58c.13-5.26.28-5.63.49-7.37-.6-.48-3-6.27-3.14-7.41-.04-.32-.82-4.9 3.25-4.92 4.08-.02 3.33 4.57 3.3 4.9-.14 1.13-2.49 6.95-3.1 7.43.2 1.55.37 2.02.54 5.83l23.41-26.98c-4.2-6.67-6.1-13.98-6.94-21.6-1.2.16-1.98.18-1.98.18s.06-2.54.98-5.68zM177.15 451.06a17.2 17.2 0 0 0 3.82-10.83h-10.84v.02l-6.44 13.12-6.43-13.12v-.02H146.4c0 4.1 1.44 7.86 3.82 10.82a17.24 17.24 0 0 0 13.46 6.46l.5-.02h.03a17.23 17.23 0 0 0 12.93-6.44zm244.78-29.35h-10.84c0 4.09 1.43 7.85 3.82 10.81a17.24 17.24 0 0 0 13.46 6.46l.5-.02h.03a17.23 17.23 0 0 0 16.75-17.26h-10.84v.01l-6.44 13.13-6.44-13.13zm-201.61 80.9h-43.54c-3.69 0-3.7 5.72 0 5.72h43.54c3.69 0 3.7-5.73 0-5.73zm25.2-36.2c-3.68 0-3.69 5.72 0 5.72 3.7 0 3.7-5.72 0-5.72zm-13.2 0h-10.47c-3.69 0-3.7 5.72 0 5.72h10.47c3.68 0 3.69-5.72 0-5.72zm65.91 94.27H254.7c-3.68 0-3.69 5.73 0 5.73h43.54c3.69 0 3.7-5.73 0-5.73zm61.88-116.71h19.86c3.68 0 3.69-5.73 0-5.73H360.1c-3.7 0-3.7 5.73 0 5.73zm-23.68-5.73c-3.69 0-3.7 5.73 0 5.73h9.16c3.69 0 3.7-5.73 0-5.73h-9.16zm-2.3 67.23H309.7c-3.69 0-3.7 5.73 0 5.73h24.44c3.69 0 3.7-5.73 0-5.73zm122.99-2.87h-17.57c-3.69 0-3.7 5.73 0 5.73h17.57c3.68 0 3.69-5.73 0-5.73zm-29.8 0h-13.75c-3.68 0-3.69 5.73 0 5.73h13.75c3.7 0 3.7-5.73 0-5.73zm-30.55 33.97h-26.73c-3.69 0-3.7 5.72 0 5.72h26.73c3.69 0 3.7-5.72 0-5.72zm-43.54 0c-3.69 0-3.7 5.72 0 5.72 3.69 0 3.7-5.72 0-5.72zm86.32-66.7c3.68 0 3.69-5.74 0-5.74H412.8c-3.68 0-3.7 5.73 0 5.73h26.74zm52.7-19.49h-15.27c-3.69 0-3.7 5.73 0 5.73h15.27c3.69 0 3.7-5.73 0-5.73zm-28.26 0c-3.69 0-3.7 5.73 0 5.73 3.69 0 3.7-5.73 0-5.73zm-179.13 86.95c-3.68 0-3.69 5.73 0 5.73 3.7 0 3.7-5.73 0-5.73zm-9.54 5.73c3.68 0 3.69-5.73 0-5.73H256.6c-3.68 0-3.69 5.73 0 5.73h18.72zm43.47 35.72h-18.27c-3.68 0-3.69 5.73 0 5.73h18.27c3.68 0 3.69-5.73 0-5.73zm-28.27 0c-3.68 0-3.69 5.73 0 5.73s3.7-5.73 0-5.73zM117.96 465.49c-3.68 0-3.7 5.73 0 5.73 3.69 0 3.7-5.73 0-5.73zm-12.98 0H89.7c-3.69 0-3.7 5.73 0 5.73h15.27c3.7 0 3.7-5.73 0-5.73z"/>
  <path fill="#FFD2BB" d="M238.67 265.95c1.3 1.3 2.9 2.1 4.58 2.45v.52l-2.65 2.92a5.54 5.54 0 0 1-4.1 1.82h-.81a3.56 3.56 0 0 0-3.58 3.58v.62a3.57 3.57 0 0 0 3.58 3.58h7.56v32.86h-25.2v-25.64l20.17-23.23c.15.17.28.35.45.52zm2.74 118.6 1.84.29v-2.5c-.17.43-.41.83-.7 1.18-.33.4-.73.73-1.14 1.03zm-23.37-105.7 18.13-20.88c.05-.26.09-.52.16-.78.2-.05.42-.08.63-.12l4.46-5.15c-5.43-.37-11.2.2-16.58.2-2.28 0-4.68-.06-6.8-.6v27.34zm-48.4-91.51a12.28 12.28 0 0 1 4.44-5.15v-8.43c-.57-.6-1.13-1.2-1.68-1.83-2.55.74-4.61.79-4.61.79s.05-2.46 1.02-5.35a59.47 59.47 0 0 1-9.44-20.65 54.4 54.4 0 0 1-1.22-7.74h-1.6v33.3a72.35 72.35 0 0 0 13.1 15.06zm48.4 166.35v5c.12-.01.23-.02.34 0 1.2.06 2.32.66 3.32 1.35 1.7 1.2 4 3.9 5.08 6.5 0-3.08.02-6.19.04-9.26-2.32-.08-4.84-1.1-6.82-2.16a7.16 7.16 0 0 1-1.96-1.43zm10.42-6.7.12 8.52a14.95 14.95 0 0 1 3.84-5.01 5.83 5.83 0 0 1 2.87-1.32c1.06-.11 2.23.33 2.72 1.28.45.87.23 1.97-.33 2.78a6.45 6.45 0 0 1-2.27 1.83c-1.97 1.07-4.49 2.1-6.8 2.2l.1 9.27a16.93 16.93 0 0 1 5.04-6.54c.99-.7 2.1-1.3 3.31-1.39 1.2-.08 2.52.48 3.04 1.57.48 1.01.18 2.26-.49 3.15a7.16 7.16 0 0 1-2.65 1.99c-2.4 1.2-5.49 2.33-8.23 2.22l.1 8.99a19.04 19.04 0 0 1 5.78-7.02 7.45 7.45 0 0 1 3.75-1.46c1.36-.05 2.82.61 3.37 1.86.5 1.14.13 2.53-.65 3.51a8.15 8.15 0 0 1-3.04 2.15c-2.7 1.26-6.15 2.42-9.2 2.25l.04 4.77 2.4.37a19.2 19.2 0 0 1 4.18-3.95 8.26 8.26 0 0 1 4.2-1.52c1.45-.02 2.96.68 3.6 1.96V345.9H232.3c-1.24.56-2.57 1-3.84 1.09zm.67-98.44 9.2-.31v-7.5c0-2.48 3.83-2.47 3.83 0v7.43c.37 0 .73.02 1.1.04v-25.8l-14.13 16.27v9.87zm-11.09 127.33V378c.73.27 1.43.64 2.08 1.06.93.58 2.02 1.51 3.07 2.63l3.54.55v-4.42c-2.85.18-6.06-.8-8.69-1.95zm7.25-132.78-4.55 5.24c1.47.2 3 .28 4.55.3v-5.54zm-7.25 102.8v3.89a3.01 3.01 0 0 1 2.04-.56c1.06.1 2.02.66 2.87 1.3a15 15 0 0 1 3.88 4.99l.06-8.52a12 12 0 0 1-3.92-1.1h-4.93zm0 19.23v3.12a8.6 8.6 0 0 1 2.87 1.3 19.05 19.05 0 0 1 5.83 6.99l.03-8.99c-2.74.13-5.84-.98-8.25-2.16l-.48-.26zm191-85.08V265.7l-5.22 6.01a26.5 26.5 0 0 0 5.22 8.34zm-83.88-133.33c-1.34-5.55-1.58-11.16-1.62-16.8l-12 13.81c.33 2.4.77 4.78 1.38 7.16a70.8 70.8 0 0 0 4.8 13.16l9.4-10.85a59.51 59.51 0 0 1-1.96-6.48zm72.82 232.5v-1.56a16.46 16.46 0 0 1-3.76-2.77c-5.43-5.43-5.59-14.08-5.59-14.08s4.74.1 9.4 2.35a13.66 13.66 0 0 1 11-12.33v-49.75a41.33 41.33 0 0 1-11.43-8.13 42 42 0 0 1-5.87-7.31l-7.9 9.1v55.55l.01.02a3.7 3.7 0 0 1 0 2.94v7.68c.91.4 1.7 1.06 2.1 1.97.66 1.49.18 3.29-.83 4.55-.37.47-.81.86-1.28 1.22v4.08c1.78.15 3.54 1.1 4.22 2.74.69 1.67.1 3.65-1.04 5.03a9.95 9.95 0 0 1-3.18 2.4v1.51l14.46-2.33c-.2-.93-.31-1.89-.31-2.88zM387.9 197.55H380c-5.23 0-9.93 2.2-13.28 5.7a58.46 58.46 0 0 1-7.72-2.2 72.7 72.7 0 0 1-24.87-14.87v19.26a2.6 2.6 0 1 1-5.18 0v-24.51a72.68 72.68 0 0 1-7.97-10.84l7.97-9.18V80.98c-.5-.57-.97-1.16-1.38-1.8a39.97 39.97 0 0 1 1.12 9.95 8.78 8.78 0 0 1-2.62-1.78c-2.66-2.43-5.26-6.24-7.05-6.6.8 4.42.63 8.99-.41 13.36l-.47-.51a98.81 98.81 0 0 1-.24 3.17l-24.02 27.67a59.83 59.83 0 0 0 10.22-22.25c1.08-4.7 1.37-9.47 1.44-14.25a65.7 65.7 0 0 1-3.93-5.89 47.84 47.84 0 0 1-2.28 9.14c-2-1.86-3.58-4.34-4.47-6.92l-.01-.03v.04a17.73 17.73 0 0 1-2.98 8.63 58.8 58.8 0 0 1-5.53-12.98c.18 2.8-.16 5.7-.86 8.41-2.21-1.22-5.56-5.23-5.56-5.23l-4 3.53-.09-.07-6.24-5.72s-1.2 4.02-2.15 6.27v57.38a59.38 59.38 0 0 0 20.45-13.16l-20.45 23.55v20.76a2.6 2.6 0 1 1-5.18 0V159.5c-6.29 1.37-12.62 1.7-19 1.78v21.49l-25.21 29.03v-6.78c-3.81-.09-7.6-.3-11.38-.78-.11-.78-.3-1.76-.62-2.82a18.3 18.3 0 0 0 14.89-7.82 14.2 14.2 0 0 0 5.25-3.21c4.24-4.25 4.37-11 4.37-11s-3.03.06-6.3 1.37V169.9c.68-.45 1.33-.96 1.93-1.56 4.24-4.24 4.37-11 4.37-11s-4.89.1-8.96 2.75a18.38 18.38 0 0 0-3.55-4.25v-22.68a33 33 0 0 0 7.5-7.23c5.31 3.73 12 3.85 12 3.85s-.17-8.64-5.6-14.07c-.31-.31-.64-.6-.97-.88a32.86 32.86 0 0 0 .63-14.24c3.29.96 5.93 1.02 5.93 1.02s-.16-8.65-5.59-14.08a17.36 17.36 0 0 0-5.42-3.59 24.11 24.11 0 0 0-4.1-1.34l-.29-.07-.34-.07a32.58 32.58 0 0 0-18.36-8.62c.86-3.11.91-5.56.91-5.56s-8.31.17-13.75 5.3h-21.8a32.9 32.9 0 0 0 5.71-5.88c5.3 3.72 11.99 3.85 11.99 3.85s-.16-8.65-5.6-14.08c-.3-.3-.63-.6-.96-.88a32.6 32.6 0 0 0-1.48-21.37 300.1 300.1 0 0 1 10.25-4.36c.85 2.1 2.09 4.26 3.9 6.07.75.75 1.55 1.4 2.39 1.96a32.72 32.72 0 0 0 21.8 14.99c-.98 3.34-1.03 6.03-1.03 6.03s8.56-.18 14.16-5.46h52.06c-.82 3.07-.87 5.46-.87 5.46s8.56-.18 14.16-5.46h52.06c-.81 3.07-.87 5.46-.87 5.46s8.56-.18 14.16-5.46h1.95c10.76 0 20.3-5.2 26.26-13.22 5.4 3.62 12.02 3.75 12.02 3.75s-.17-8.9-5.75-14.48c-.27-.27-.54-.5-.82-.75.3-1.2.53-2.43.7-3.68 4.54 1.6 9.04 3.3 13.48 5.11a32.55 32.55 0 0 0-3.5 14.73c0 1.63.12 3.24.35 4.8-3.2-.91-5.78-.97-5.78-.97s.17 8.64 5.6 14.07c2.7 2.7 6.2 4.1 9.03 4.82a32.75 32.75 0 0 0 10.75 7.4h-17.09c.8-2.98.85-5.3.85-5.3s-8.39.16-13.83 5.37a32.64 32.64 0 0 0-23.76 12.46c-.54-.4-1.09-.79-1.65-1.12l.4-.59c-.67-.07-1.71-.3-2.88-.62a23.92 23.92 0 0 0-2.95-1l-1.22-.51c-2.93-1.37-4.73-3.15-.95-4.61-3.05-1.3-6.47-1.58-8.78-4.3.93 2.38 1.3 4.85 1.12 7.4a13.98 13.98 0 0 1-9.86-6.5c.14 3.52-.46 7.16-1.55 10.5-3.51-2.56-5.15-6.8-5.85-1.08-.96-.3-1.9-.68-2.78-1.13v81.73a59.25 59.25 0 0 0 17.04 16.3 13.3 13.3 0 0 0 12.34 5.93c1.56.53 3.14 1 4.74 1.42l1.5.37a66.82 66.82 0 0 0 13.97 1.43h.1v-53.43a32.4 32.4 0 0 0 6.22 1.98c-.98 3.32-1.03 6-1.03 6s8.31-.16 13.75-5.3h6.27v6.98c4.53-.02 9.04-.2 13.52-.95a58.55 58.55 0 0 0 12.6-3.74v13.8c-1.69.56-3.4 1.08-5.12 1.51-6.44 1.64-12.92 2.09-19.45 2.2l-1.55.04v36.92a18.3 18.3 0 0 0-4.73-.64h-3.76c.9-3.08.95-5.56.95-5.56s-8.21.16-13.37 5.31l-.23.25zM262.26 86.08a32.81 32.81 0 0 1-4.8-5.98c.67 3.71-.79 7.44-3.53 9.98a15.95 15.95 0 0 1-3.45-5 21.22 21.22 0 0 1-2.6 6.12 21.51 21.51 0 0 1-2.94-4.32c-.44 1.43-1 2.8-1.69 4.13v51.92l-3.64 3.65-5.17 4.65h2.87l2.3-4.65a10.96 10.96 0 0 0 13.88 1.33 52.55 52.55 0 0 0 8.77-1.7V86.09zM21.39 223.35c2.6 1.5 3.76 1.24 3.48-.77a17.2 17.2 0 0 0 4.53 2.37c.03-.4.06-.82.07-1.23a18.3 18.3 0 0 1-7.64-14.8c-.2-.26-.38-.53-.56-.8-2 5.91-3.8 11.91-5.42 17.98 3.08 1.97 6.92 2.66 5.54-2.75zM489 173.6c.31.41.63.82.97 1.2a21.21 21.21 0 0 0 2.58-6.13l.23.58c1.23 3.15 1.87 7.06 3.17 10.19a17.46 17.46 0 0 1 2.33-2.93c1.2-1.2 2.55-2.17 3.93-2.94a18.34 18.34 0 0 1 17.12-11.81h7.25c-1.04-3.57-1.1-6.43-1.1-6.43s9.51.17 15.48 6.14l.26.29h12.04c.52 0 1.03.04 1.54.08-4.16-7.6-8.65-15-13.44-22.17a32.63 32.63 0 0 1-10.6 1.76h-6.04a16.3 16.3 0 0 1-2.24 2.86c-5.43 5.43-14.08 5.59-14.08 5.59s.08-4.11 1.91-8.45h-23.58v29.94l.3-.88c.56 1.1 1.23 2.13 1.97 3.11zm82.6 24.72v4.96c.55-.22 1.09-.42 1.62-.59a386.1 386.1 0 0 0-1.62-4.37zm5.24 23.61c.2-1.64.23-4.8.2-7.95l-.15-.47a17.68 17.68 0 0 1-2.58 3.31c-.53.53-1.09 1-1.66 1.44a24 24 0 0 0 4.19 3.67zM57.05 137.88c-.34.04-.62.07-.86.08a292.19 292.19 0 0 0-9.9 15.66h7.18l.27-.3c6.22-6.21 16.13-6.4 16.13-6.4s-.07 2.99-1.14 6.7h8.31c8.07 0 14.9 5.22 17.36 12.46.38.23.77.47 1.15.73a9.5 9.5 0 0 0-.25-1.3c2.6 1.5 3.76 1.25 3.47-.76a17.2 17.2 0 0 0 4.54 2.36c.26-3.3-.16-6.83-1.36-9.94.95.64 1.98 1.17 3.04 1.64v-19.83H65.47a32.5 32.5 0 0 1-8.42-1.1zm523.33 222.6-1.46.37-45.35 11.61a26.13 26.13 0 0 1 1.68 7.08l45.87-7.61.98-.17.5-2a82.05 82.05 0 0 0-2.22-9.28zm-54.42 18.74c0 .62-.05 1.23-.13 1.83l.15.03.48-.08 1.75-.3 3.77-.62a24.4 24.4 0 0 1-6.02-1.92v1.06zm36.36-50.38a82.52 82.52 0 0 0-8.19-7.75h-8.22l-24.99 31.94-.3.39a13.63 13.63 0 0 1 5.23 9.17l36.47-33.75zm-36.46-7.75a19.38 19.38 0 0 1-8 4.33l-7.95 24.94c.78.13 1.57.22 2.39.22 2.29 0 4.44.57 6.33 1.56l17.53-31.05h-10.3zm-27.39-8.02a31.8 31.8 0 0 1-2.07-1.96c-2.83-.72-6.33-2.12-9.03-4.82-.23-.23-.44-.48-.66-.72v2.06l1.95 12.44c1.25.35 2.42.87 3.5 1.54a23.95 23.95 0 0 1 6.58-2.23l-.27-6.3zm-.07 17.7c.15.8.24 1.6.24 2.45v3.7c0 1.9.39 3.7 1.09 5.35l-.55-12.75c-.24.42-.5.84-.78 1.25zm4.27-14.6-1.24 29a13.67 13.67 0 0 0 6.52 4.69l4.64-29.6a32.48 32.48 0 0 1-9.92-4.09zm52.5 69.48 24.32-3.92.18-.67-46.5 1.14 22 3.45zm22.05-33.82-.15-.31a81.96 81.96 0 0 0-9-15.67l-41.3 28.25c1.04.64 2.04 1.4 2.95 2.3a16.53 16.53 0 0 1 2.82 3.86l44.6-18.4.08-.03zm-485.05-7.71a13.53 13.53 0 0 0 2.04-6.62 26.1 26.1 0 0 1-2.96.73l.92 5.89zm5.58-41.89a83.04 83.04 0 0 0-11.96 1.08l4.15 26.55a17.35 17.35 0 0 1 3.54-5.3 17.2 17.2 0 0 1 5.09-3.44l-.82-18.89zm-30.02 57.4-34.78-23.78a81.94 81.94 0 0 0-9.14 15.98l34.6 14.27c-.8-2.98-.84-5.29-.84-5.29s4.73.1 9.4 2.35c.1-1.23.36-2.4.76-3.52zm-47.53 21.4-2.99-.07c-.02.56-.02 1.12-.03 1.69l.91 3.08L41.16 382l27.78 4.35a13.58 13.58 0 0 1-1.7-4.17l-47.04-1.16zm42.96-6.14c-1.31-1.3-2.3-2.8-3.07-4.31l-39.44-10.1a81.42 81.42 0 0 0-2.54 11.15l48.83 8.1c0-.17-.03-.34-.03-.5v-1.57a16.48 16.48 0 0 1-3.75-2.77zm39.72-69.48-.62 14.4a27.1 27.1 0 0 1 2.74-.57V302.3c-.66-.03-1.32-.06-1.98-.07l-.14 3.18zm-50.86 11.72a82.5 82.5 0 0 0-13.32 11.7l30.35 28.1a13.67 13.67 0 0 1 8.8-6.08l-25.83-33.72zm24.73-11.8a81.55 81.55 0 0 0-16.88 6.9l21.06 38.33a13.6 13.6 0 0 0 9.05-3.75l-13.23-41.48zm91.4 31-.33-.48-.25.17v.9c0 5.64 3.42 10.48 8.3 12.56a81.73 81.73 0 0 0-7.72-13.15zm19.06 114.73h-10.06a17.24 17.24 0 0 1-12.93 6.43l-.02.02-.01-.02c-.17 0-.33.03-.5.03-5.44 0-10.3-2.53-13.46-6.46h-10.06a7.68 7.68 0 0 0 0 15.36h47.04a7.68 7.68 0 1 0 0-15.37zm264.68-18.54h-10.06a17.23 17.23 0 0 1-12.93 6.44l-.02.02-.02-.02-.5.02a17.2 17.2 0 0 1-13.45-6.46h-10.06a7.68 7.68 0 0 0 0 15.36h47.04a7.68 7.68 0 0 0 0-15.36z"/>
  <path fill="#00CEC9" d="m317.6 248.72 7.97-40.2 5 25.26-12.96 14.94zm-61.4 95.9c-.03 0-.06.02-.08.03-.35.17-.7.31-1.07.45l-.26.1-1.02.3-.35.08c-.33.08-.67.13-1.02.18l-.36.05c-.35.04-.92.08-1.3.08v22.81a10.26 10.26 0 0 1 7.5-6.77l-1.13-17.8c-.28.16-.57.31-.87.46l-.05.03zm13.42-92.77-1.02 5.13c1.2-.17 2.42-.1 3.6.21a9.06 9.06 0 0 1-5.8 10.9l-2.92 14.75v28.24l21-24.2-6.92-34.96c-2.66-.1-5.33-.17-7.94-.07zm3.96-20.02-2.32 11.73v4.68l5.6.19-3.28-16.6zm224.9 81.24.26 6.3a24.45 24.45 0 0 0-6.59 2.24 16.65 16.65 0 0 0-4.1 2.95c-5.43 5.43-5.59 14.07-5.59 14.07s8.64-.16 14.07-5.59a15.78 15.78 0 0 0 2.65-3.52l.55 12.75c.44 1.04 1.02 2 1.7 2.9l1.24-29a32.86 32.86 0 0 1-4.2-3.1zm22.14 40.35.3-.39-.72-3.66-1.57 2.77c.7.37 1.37.8 1.99 1.28zm-493.55 19.7-8.96-1.49a81.6 81.6 0 0 1 2.54-11.15l14.23 3.64 4.94-5.69-16.01-6.6a81.94 81.94 0 0 1 9.14-15.98l16.6 11.36 4.02-4.62-14.87-13.75c4-4.37 8.47-8.3 13.32-11.71l4.29 5.6-2.96-14.94c-2.65.7-5.43 1.07-8.3 1.07h-.97l.31-.28c5.43-5.43 5.6-14.08 5.6-14.08s-8.65.16-14.08 5.6c-2.62 2.61-4 5.98-4.75 8.76h-3.78l-12.74 64.31c.8 3.18 1.64 6.34 2.54 9.48 0-.57 0-1.13.03-1.7l3 .08 6.86-7.91zm33.17-18.6 2.74 1.87-.81-4.08-1.93 2.21zm-23.36 26.92 30.37.75c-.18-.8-.28-1.62-.31-2.46l-24.98-4.14-5.08 5.85zm120.1-99.3 12.69-14.62-4.9-24.73-7.8 39.35zm24.26 68.44c1.8 0 3.5.36 5.08.99l-4.25-21.46-10.25 11.8a81.73 81.73 0 0 1 4.05 7.57c1.65.7 3.46 1.1 5.37 1.1zm-1.3-31.22-.36-.38-.28-.29-.53-.62-.23-.28c-.24-.3-.46-.6-.68-.92l-.02-.03-.58-.83h2.01l-3.2-16.2-17.79 20.47c1 .34 1.93.79 2.8 1.33a16.68 16.68 0 0 0-4.1 2.95c-5.43 5.43-5.59 14.07-5.59 14.07s8.65-.16 14.08-5.59c.7-.7 1.33-1.48 1.87-2.27.14.8.23 1.61.23 2.45v2.8l.25-.17.33.48 12.33-14.2-.54-2.77zm397.13 32.16-6.03-30.43h-16.9a82.03 82.03 0 0 1 8.18 7.75l-29.19 27.01-.9 4.51 35.85-24.51a81.92 81.92 0 0 1 9 15.67zm-41.82 28.02a26.13 26.13 0 0 0-1.68-7.08l45.35-11.6-1.78-9-44.6 18.4a16.53 16.53 0 0 0-2.82-3.85 16.07 16.07 0 0 0-3.79-2.8c-4.93-2.68-10.28-2.8-10.28-2.8s.16 8.65 5.59 14.08a17.02 17.02 0 0 0 4.72 3.27 24.42 24.42 0 0 0 6.02 1.92l-3.77.63-.14.7-1.58-.25-.03-.16-.49.08-1.05-.17-25.26 4.07c2.37-4.74 2.46-9.66 2.46-9.66s-8.64.16-14.07 5.6a16.33 16.33 0 0 0-2.59 3.42l-21.02-3.3-28.66 4.63a25.1 25.1 0 0 0 2.83-10.35s-8.64.16-14.07 5.6c-.96.95-1.75 2.01-2.4 3.11l-18.18-2.84-30.22 4.87-20.65-3.23c-.24-2.03-1.08-6.06-3.83-9 .93-.65 2.1-1 3.25-1a8.2 8.2 0 0 1 2.41.44l1.78-2.05c-.72-.29-1.44-.58-2.1-.89a10.54 10.54 0 0 1-3.96-2.75c-1.02-1.26-1.51-3.06-.87-4.55.7-1.61 2.58-2.48 4.34-2.43.56.02 1.1.12 1.64.27l-.86-4.36a7.98 7.98 0 0 1-2.44-2.01c-.88-1.15-1.27-2.76-.66-4.07.32-.7.9-1.23 1.58-1.58l-3.07-15.5-21.8 25.12a10.2 10.2 0 0 0 7.44 3.21c5.5 0 9.98 4.34 10.23 9.78-3.7-2.02-7.71-2.1-7.71-2.1s.12 6.48 4.19 10.55c.62.62 1.3 1.14 2 1.6l-1.15-.19-15.73 2.54c.51-2.07.54-3.62.54-3.62s-6.48.12-10.55 4.2c-.38.37-.72.78-1.04 1.2l-3.45.55-30.24-4.73-2.5.4c.14-1 .15-1.62.15-1.62s-5.24.1-9.26 3.1l-18.62 3-5.81-.92-.4-6.41a11.55 11.55 0 0 0 3.62 2.98c3.7 2.03 7.73 2.11 7.73 2.11s-.12-6.48-4.2-10.55a12.74 12.74 0 0 0-3.5-2.43 18.08 18.08 0 0 0-4.25-1.4 17.7 17.7 0 0 0-2.74-.36h-.05s0 .3.05.8a19 19 0 0 0 1.7 6.23l-1.68 8.45h-.02l-20.06-3.14-.63-.1-30.23 4.87-22.84-3.57c1.5-4 1.57-7.58 1.57-7.58s-8.64.17-14.07 5.6c-.6.6-1.13 1.24-1.6 1.9l-23.53 3.79-25.76-4.03c1.38-3.87 1.45-7.26 1.45-7.26s-8.64.17-14.07 5.6c-.81.8-1.5 1.69-2.09 2.6l-20 3.23-2.45-.39-27.79-4.35-23.06 3.72a288.4 288.4 0 0 0 7.14 20.95l.26-.05c-.31-.98-.48-2.03-.48-3.12v-.28c0-5.71 4.63-10.34 10.34-10.34h525.7c5.7 0 10.34 4.63 10.34 10.34v.28c0 .56-.06 1.1-.15 1.64l.54-.09a289.48 289.48 0 0 0 7.7-23.33l-24.31 3.92-22.01-3.45 46.5-1.14c.66-2.32 1.28-4.65 1.88-7l-.43-2.13-45.86 7.6zm2.77-48.37 7.89-10.08h-5.89l-2 10.08zm14.96-75.49h5.1l-2.55-12.9-2.55 12.9zm-375.01-97.36a14.53 14.53 0 0 0-5.81 3.4 14.44 14.44 0 0 0-3.35 5.66 20 20 0 0 0-1.02 5.34s2.06-.04 4.61-.8c.55-.15 1.11-.34 1.68-.57 1.62-.65 3.3-1.6 4.7-3 4.25-4.24 4.37-11 4.37-11s-2.37.05-5.18.97zm-1.47 33.83c.8-.5 1.58-1.07 2.28-1.78 4.25-4.24 4.37-11 4.37-11s-4.97.1-9.07 2.81a12.35 12.35 0 0 0-4.44 5.16c-1.78 3.66-1.85 7.4-1.85 7.4s4.43-.08 8.37-2.37l.34-.22zm49.69-23.8c4.24-4.25 4.37-11 4.37-11s-4.9.1-8.97 2.74c-.7.47-1.4 1-2.03 1.63-4.25 4.24-4.37 11-4.37 11s4.98-.1 9.07-2.81a12.8 12.8 0 0 0 1.93-1.56zm0 22.02c4.24-4.24 4.37-11 4.37-11s-3.03.07-6.3 1.37c-1.62.65-3.3 1.6-4.7 3-4.25 4.25-4.37 11-4.37 11s2.7-.05 5.75-1.16a14.22 14.22 0 0 0 5.25-3.2zm-23.52-39.13-.18-.2c-4.25-4.25-11-4.37-11-4.37s.04 2.04.78 4.58c.6 2.08 1.67 4.5 3.59 6.41 4.24 4.25 11 4.37 11 4.37s-.13-6.54-4.19-10.8zm-.18 21.82c-4.25-4.25-11-4.37-11-4.37s.12 6.75 4.37 11c4.24 4.24 11 4.37 11 4.37s-.13-6.76-4.37-11zm4.18 31.17a18.8 18.8 0 0 0-.62-2.82 14.86 14.86 0 0 0-3.56-6.33c-4.25-4.24-11-4.37-11-4.37s.13 6.45 4.1 10.7l.27.3c2.54 2.54 5.98 3.6 8.33 4.05 1.57.3 2.67.32 2.67.32s-.02-.73-.19-1.85zm160.7 6.06a15.55 15.55 0 0 0-3.7-2.71 23.57 23.57 0 0 0-8.19-2.49c-.91-.1-1.47-.12-1.47-.12s.01.64.14 1.66c.33 2.66 1.43 7.98 5.17 11.71a14.15 14.15 0 0 0 2.34 1.9c4.98 3.3 11.03 3.41 11.03 3.41s-.16-8.2-5.31-13.37zm-13.36 21.45s.15 8.21 5.3 13.37a15.98 15.98 0 0 0 4.14 2.93 24 24 0 0 0 9.24 2.38s-.16-8.2-5.31-13.37a16.86 16.86 0 0 0-5.72-3.64c-3.98-1.59-7.65-1.67-7.65-1.67zm62.92-13.4a16.92 16.92 0 0 0 5.72 3.65c3.98 1.59 7.65 1.67 7.65 1.67s-.15-8.21-5.3-13.37a16.21 16.21 0 0 0-4.57-3.14c-4.39-2.08-8.8-2.17-8.8-2.17s.14 8.2 5.3 13.36zm6.54 30.73c3.65 1.3 6.83 1.35 6.83 1.35s-.07-3.52-1.57-7.4a17 17 0 0 0-3.74-5.97 15.01 15.01 0 0 0-2.34-1.89c-4.98-3.3-11.03-3.42-11.03-3.42s.15 8.21 5.31 13.37a15.9 15.9 0 0 0 3.97 2.85c.86.44 1.73.82 2.57 1.11zm-22.92-51.52c.9-3.09.94-5.56.94-5.56s-8.2.15-13.36 5.31l-.23.25c-4.93 5.17-5.09 13.12-5.09 13.12s8.21-.15 13.37-5.31a18.11 18.11 0 0 0 4.37-7.81zm-4.37 34.58c5.16-5.16 5.32-13.37 5.32-13.37s-8.22.15-13.37 5.31c-5.16 5.16-5.32 13.37-5.32 13.37s8.21-.15 13.37-5.31zm-11.39 31.9c2.76-.38 7.8-1.55 11.4-5.13l.32-.37c4.83-5.17 4.98-13 4.98-13s-8.2.15-13.36 5.3a18.1 18.1 0 0 0-4.34 7.7c-.93 3.14-.98 5.68-.98 5.68s.77-.02 1.98-.18zM71.64 366.4a17.02 17.02 0 0 0-4.67-3.25c-4.66-2.25-9.4-2.35-9.4-2.35s.05 2.31.83 5.29l-6.04-2.5-3.55 4.09 11.28 2.89c.77 1.5 1.76 3 3.07 4.3a16.5 16.5 0 0 0 3.76 2.78c4.93 2.7 10.3 2.82 10.3 2.82s-.15-8.65-5.58-14.08zM105 319.22a23.95 23.95 0 0 0-6.44 1.89 17.3 17.3 0 0 0-5.08 3.44 17.33 17.33 0 0 0-3.54 5.3c-1.96 4.45-2.05 8.77-2.05 8.77s1.37-.03 3.36-.4c.9-.17 1.9-.4 2.96-.73 2.56-.8 5.44-2.15 7.75-4.46 4.58-4.58 5.41-11.44 5.56-13.47l.03-.6s-1.02.03-2.55.26zM87.89 366.8s8.64-.16 14.07-5.59 5.59-14.07 5.59-14.07-8.64.16-14.07 5.59-5.6 14.07-5.6 14.07zm52.85-14.5s-.16-8.65-5.6-14.08c-5.42-5.43-14.06-5.6-14.06-5.6s.16 8.65 5.59 14.08c5.42 5.43 14.07 5.6 14.07 5.6zm-14.07-31.93c5.43 5.43 14.07 5.59 14.07 5.59s-.06-2.91-1.17-6.42a21.7 21.7 0 0 0-1.37-3.37 16.8 16.8 0 0 0-3.05-4.29 16.87 16.87 0 0 0-4.37-3.1c-4.76-2.39-9.7-2.49-9.7-2.49s.15 7.82 4.84 13.25c.24.28.48.56.75.83zm14.07 60.1s-.16-8.65-5.6-14.08c-5.42-5.43-14.06-5.59-14.06-5.59s.16 8.65 5.59 14.08c5.42 5.43 14.07 5.59 14.07 5.59zm10.66-13.67s8.64-.16 14.07-5.59 5.59-14.07 5.59-14.07-8.64.16-14.07 5.59-5.6 14.07-5.6 14.07zm43.5 11.35c1.8.86 3.6 1.4 5.13 1.74 2.44.54 4.22.58 4.22.58s-.16-8.64-5.6-14.07c-.19-.2-.4-.37-.6-.55-1-.9-2.08-1.64-3.18-2.24-4.93-2.7-10.29-2.8-10.29-2.8s.16 8.64 5.6 14.07a17.08 17.08 0 0 0 4.72 3.27zm203.08-.5c4.93 2.7 10.31 2.82 10.31 2.82s-.16-8.65-5.59-14.08a17.02 17.02 0 0 0-4.67-3.24c-4.66-2.25-9.4-2.35-9.4-2.35s.16 8.65 5.59 14.08a16.46 16.46 0 0 0 3.76 2.77zm37.17-58.27c-3 .58-7.37 1.93-10.6 5.17-5.44 5.43-5.6 14.07-5.6 14.07s2.86-.06 6.33-1.13a18.8 18.8 0 0 0 7.74-4.46c4.59-4.58 5.41-11.44 5.56-13.47l.04-.6s-1.43.03-3.47.42zm-16.2 47.42s8.64-.16 14.07-5.59 5.6-14.07 5.6-14.07-8.65.16-14.08 5.59-5.59 14.07-5.59 14.07zm52.85-14.5s-.16-8.65-5.59-14.08-14.07-5.6-14.07-5.6.16 8.65 5.59 14.08 14.07 5.6 14.07 5.6zm-14.07-31.95c5.43 5.43 14.07 5.59 14.07 5.59s-.06-2.9-1.16-6.4c-.5-1.6-1.23-3.33-2.28-4.96-.6-.95-1.3-1.87-2.15-2.72a17.3 17.3 0 0 0-5.28-3.52c-4.45-1.98-8.8-2.07-8.8-2.07s.17 7.84 4.87 13.27c.24.28.47.55.73.8zm14.07 60.12s-.16-8.65-5.59-14.08-14.07-5.59-14.07-5.59.16 8.65 5.59 14.08 14.07 5.59 14.07 5.59zm10.66-13.67s8.64-.16 14.07-5.59 5.6-14.07 5.6-14.07-8.65.16-14.08 5.59-5.59 14.07-5.59 14.07zm-216.52 7.05s6.48-.13 10.55-4.2 4.2-10.55 4.2-10.55-6.49.12-10.56 4.2c-4.07 4.06-4.2 10.55-4.2 10.55zm35.44-21.44c-4.07-4.07-10.55-4.2-10.55-4.2s.12 6.49 4.19 10.56 10.55 4.2 10.55 4.2-.12-6.49-4.19-10.56zm-8.43-22.82-5.3-26.75-24.17 27.85v30.53a10.25 10.25 0 0 0 7.2-9.36 14.1 14.1 0 0 0 5.81-3.34c3.44-3.44 4.06-8.58 4.17-10.1l.29-.01h12.8c.38.52.8 1.03 1.27 1.5 4.07 4.07 10.55 4.2 10.55 4.2s-.06-2.7-1.18-5.7a13.52 13.52 0 0 0-3.01-4.86l-.45-.4 40.17-46.28-7.36-37.12-21.17 24.39-11.68 58.96c-2.55-2.26-5.83-3.16-7.94-3.51zm2.07 50.31c4.07 4.07 10.55 4.2 10.55 4.2s-.12-6.49-4.2-10.56c-4.06-4.07-10.54-4.2-10.54-4.2s.12 6.49 4.19 10.56zm25.81-39.96a12.47 12.47 0 0 0-3.07 2.22c-4.07 4.07-4.2 10.55-4.2 10.55s6.49-.12 10.56-4.19c.53-.53 1-1.1 1.4-1.7 2.7-3.96 2.8-8.85 2.8-8.85s-3.86.08-7.49 1.97zm-7.26 33.9s6.48-.12 10.55-4.19 4.2-10.55 4.2-10.55-6.49.12-10.56 4.2c-4.07 4.06-4.2 10.55-4.2 10.55zm-282.3-191.2c6.11 4.4 13.93 4.56 13.93 4.56s-.18-9.9-6.4-16.12c-.46-.45-.93-.86-1.41-1.25-6.2-5-14.72-5.16-14.72-5.16s.19 9.9 6.4 16.13c.7.69 1.44 1.3 2.2 1.84zm-9.44 26.27c.53.72 1.1 1.42 1.75 2.07 6.22 6.22 16.13 6.4 16.13 6.4s-.19-9.9-6.41-16.12a20.91 20.91 0 0 0-7.8-4.74c-4.44-1.59-8.33-1.66-8.33-1.66s.15 7.26 4.1 13.26l.56.8zm73.55-25.82c4.8 1.92 9.23 2.01 9.23 2.01s-.18-9.9-6.4-16.12a18 18 0 0 0-3.81-2.9c-5.79-3.39-12.32-3.5-12.32-3.5s.18 9.9 6.4 16.12a20.32 20.32 0 0 0 6.9 4.4zm-1.06 31.83c5.18 2.36 10.29 2.47 10.29 2.47s-.18-9.9-6.4-16.13a18.12 18.12 0 0 0-2.83-2.28c-6-3.97-13.3-4.12-13.3-4.12s.18 9.9 6.4 16.12a19.75 19.75 0 0 0 5.84 3.94zm46.9-158.49c5.43 5.43 14.07 5.6 14.07 5.6s-.15-7.25-4.34-12.64c-.38-.5-.8-.98-1.25-1.44-5.43-5.43-14.07-5.59-14.07-5.59s.16 7.93 4.95 13.37c.2.23.41.48.64.7zm33.3 11.25c5.3 3.72 11.98 3.85 11.98 3.85s-.16-8.64-5.6-14.07c-.3-.31-.63-.6-.96-.88-5.43-4.56-13.1-4.71-13.1-4.71s.16 8.64 5.59 14.07a15.7 15.7 0 0 0 2.08 1.74zm-105.8 85.94c1.08-3.72 1.15-6.7 1.15-6.7s-9.9.17-16.13 6.4l-.27.3c-5.94 6.23-6.13 15.82-6.13 15.82s9.9-.18 16.12-6.4c2.8-2.81 4.38-6.37 5.27-9.43zm1.15 25.58s-9.9.18-16.13 6.4c-6.22 6.22-6.4 16.13-6.4 16.13s9.9-.19 16.12-6.4c6.22-6.23 6.4-16.13 6.4-16.13zm-6.41 48.4c.14-.13.26-.29.4-.43 5.81-6.24 6-15.69 6-15.69s-9.9.19-16.12 6.4c-2.76 2.77-4.33 6.26-5.23 9.29-1.11 3.78-1.17 6.84-1.17 6.84s3-.06 6.74-1.15c3.05-.89 6.59-2.46 9.38-5.25zm-6.41-89.73c2.72-.31 8.51-1.44 12.54-5.47 5.43-5.43 5.6-14.07 5.6-14.07s-2.19.04-5.05.77c-2.83.72-6.33 2.12-9.03 4.82-5.43 5.43-5.59 14.07-5.59 14.07l.67-.04c.24-.01.52-.04.86-.08zM96.45 96c5.43 5.43 14.07 5.6 14.07 5.6s-.16-8.65-5.59-14.08a16 16 0 0 0-2.91-2.27c-5.15-3.2-11.16-3.32-11.16-3.32s.11 5.8 3.14 10.88a16.2 16.2 0 0 0 2.45 3.2zm14.07 33.77s-.16-8.64-5.59-14.07-14.07-5.6-14.07-5.6.16 8.65 5.59 14.08 14.07 5.59 14.07 5.59zM140 73.58c.8-2.99.84-5.3.84-5.3s-8.31.16-13.76 5.3l-.31.28c-5.43 5.43-5.59 14.07-5.59 14.07s8.64-.16 14.07-5.59c2.62-2.62 4-5.98 4.75-8.76zm.84 22.87s-8.64.16-14.07 5.59-5.59 14.07-5.59 14.07 8.64-.16 14.07-5.59 5.6-14.07 5.6-14.07zm-5.9 42.53.31-.28c5.43-5.43 5.6-14.08 5.6-14.08s-8.65.16-14.08 5.6c-2.62 2.61-4 5.98-4.75 8.76-.8 2.99-.84 5.3-.84 5.3s4.87-.08 9.6-2.43a17.16 17.16 0 0 0 4.16-2.87zm33.5-51.45c-5.43-5.43-14.07-5.59-14.07-5.59s.16 8.64 5.59 14.07 14.07 5.6 14.07 5.6-.16-8.65-5.59-14.08zm-8.48 36.66c5.43 5.43 14.07 5.59 14.07 5.59s-.16-8.64-5.59-14.07-14.07-5.6-14.07-5.6.16 8.65 5.59 14.08zm43.48-50.36c.86-3.1.91-5.56.91-5.56s-8.31.17-13.76 5.3l-.31.3c-5.43 5.42-5.59 14.06-5.59 14.06s8.64-.16 14.07-5.59c2.54-2.54 3.92-5.78 4.68-8.5zm-4.68 36.69c5.43-5.43 5.6-14.07 5.6-14.07s-8.65.16-14.08 5.59-5.59 14.07-5.59 14.07 8.64-.16 14.07-5.59zm-.31 28.46.31-.28c5.43-5.43 5.6-14.08 5.6-14.08s-8.65.16-14.08 5.6c-2.62 2.61-4 5.98-4.75 8.76-.8 2.99-.84 5.3-.84 5.3s8.32-.16 13.76-5.3zm33.5-51.45a17.36 17.36 0 0 0-5.42-3.59 24.11 24.11 0 0 0-4.1-1.35l-.29-.06-.34-.08c-2.29-.48-3.92-.5-3.92-.5s.16 8.63 5.59 14.06c2.43 2.43 5.5 3.8 8.14 4.58 3.28.96 5.93 1.01 5.93 1.01s-.16-8.64-5.59-14.07zm-14.07 22.59s.16 8.64 5.59 14.07c.65.65 1.36 1.23 2.09 1.74 5.3 3.72 11.98 3.85 11.98 3.85s-.16-8.64-5.59-14.07c-.31-.32-.64-.6-.97-.88-5.43-4.57-13.1-4.71-13.1-4.71zM7.98 266.99c5.4 4.34 12.83 4.5 12.83 4.5s-.16-8.65-5.6-14.08a17.4 17.4 0 0 0-5.36-3.57c-4.43-1.93-8.7-2.02-8.7-2.02s.16 8.64 5.59 14.07c.4.4.81.76 1.24 1.1zm6.1 18.6a18.6 18.6 0 0 0-7.45-4.36C3.03 280.06 0 280 0 280s.16 8.65 5.59 14.08l.4.35c5.43 5.07 13.67 5.24 13.67 5.24s-.16-8.65-5.59-14.08zm22.15-42.13-.32.28c-5.43 5.43-5.59 14.07-5.59 14.07s8.64-.16 14.07-5.59c2.54-2.54 3.92-5.78 4.68-8.5.86-3.12.91-5.57.91-5.57s-8.31.17-13.75 5.3zm-5.9 42.53s8.63-.16 14.06-5.59 5.6-14.07 5.6-14.07-8.65.16-14.08 5.59-5.59 14.07-5.59 14.07zm33.18-34.17s.16 8.64 5.59 14.07c2.43 2.43 5.5 3.8 8.15 4.58 3.28.96 5.92 1.01 5.92 1.01s-.16-8.64-5.59-14.07c-3.07-3.07-7.17-4.46-10.15-5.08a23.34 23.34 0 0 0-3.92-.51zm14.07 33.76c-.31-.3-.64-.6-.97-.88-5.42-4.56-13.1-4.7-13.1-4.7s.16 8.64 5.59 14.07a16.2 16.2 0 0 0 2.09 1.74c5.3 3.72 11.98 3.85 11.98 3.85s-.16-8.65-5.59-14.08zM192.61 36.93c.74.74 1.55 1.39 2.38 1.95 5.42 3.67 12.1 3.8 12.1 3.8s-.17-8.9-5.75-14.48a15.82 15.82 0 0 0-1.75-1.49c-5.52-4.11-12.73-4.26-12.73-4.26s.08 4.06 1.85 8.41a18.2 18.2 0 0 0 3.9 6.07zm42.42-20.42c.91-3.25.97-5.84.97-5.84s-8.9.17-14.48 5.76a17.17 17.17 0 0 0-3.04 4.22c-2.6 4.98-2.71 10.26-2.71 10.26s8.89-.17 14.48-5.76c2.58-2.58 4-5.85 4.78-8.64zm-4.78 37.64c5.58-5.59 5.75-14.48 5.75-14.48s-8.9.16-14.48 5.75a19.62 19.62 0 0 0-4.73 8.45c-.97 3.35-1.02 6.03-1.02 6.03s8.55-.17 14.15-5.46l.33-.3zm25.42-38.2c5.59 5.6 14.48 5.76 14.48 5.76s-.11-5.42-2.81-10.45a17.04 17.04 0 0 0-2.94-4.03c-5.59-5.6-14.48-5.76-14.48-5.76s.13 6.27 3.47 11.59c.64 1.01 1.38 2 2.28 2.9zm14.48 34.75s-.17-8.9-5.75-14.48c-5.59-5.59-14.48-5.75-14.48-5.75s.16 8.89 5.75 14.48c5.59 5.58 14.48 5.75 14.48 5.75zm31.2-40.03s-8.9.17-14.48 5.76c-5.59 5.58-5.75 14.48-5.75 14.48s8.9-.17 14.48-5.76c5.59-5.58 5.75-14.48 5.75-14.48zm-5.75 43.48c5.59-5.59 5.75-14.48 5.75-14.48s-8.9.16-14.48 5.75c-2.7 2.7-4.12 6.16-4.88 9.02-.82 3.08-.87 5.46-.87 5.46s8.56-.17 14.16-5.46c.1-.1.22-.19.32-.3zm25.42-38.2c5.59 5.6 14.48 5.76 14.48 5.76s-.1-5.1-2.57-10a17.34 17.34 0 0 0-3.18-4.49c-5.59-5.58-14.48-5.75-14.48-5.75s.09 4.3 2.02 8.8a17.98 17.98 0 0 0 3.73 5.68zM335.5 50.7s-.16-8.9-5.75-14.48c-5.59-5.59-14.48-5.75-14.48-5.75s.17 8.89 5.75 14.48c5.59 5.58 14.48 5.75 14.48 5.75zm29.95-33.27c1.19-3.67 1.26-6.76 1.26-6.76s-7.26.15-12.78 4.3c-.59.44-1.17.92-1.7 1.46-5.6 5.58-5.76 14.48-5.76 14.48s8.9-.17 14.48-5.76c2.3-2.3 3.68-5.15 4.5-7.72zm-4.5 36.72c5.59-5.59 5.76-14.48 5.76-14.48s-8.9.16-14.48 5.75c-2.7 2.7-4.13 6.16-4.89 9.02-.82 3.08-.87 5.46-.87 5.46s8.56-.17 14.16-5.46c.1-.1.22-.19.32-.3zm27.9-12.93c5.4 3.62 12 3.75 12 3.75s-.16-8.9-5.75-14.48c-.26-.26-.54-.5-.81-.74-5.6-4.85-13.67-5.01-13.67-5.01s.17 8.9 5.76 14.48c.76.77 1.6 1.43 2.46 2zm107.1 138.22c-3.68 5.72-3.83 12.54-3.83 12.54s4.26-.09 8.87-1.93a19.53 19.53 0 0 0 6.61-4.22c5.97-5.97 6.15-15.47 6.15-15.47s-6.06.12-11.55 3.2a18.01 18.01 0 0 0-3.93 2.95c-.9.9-1.67 1.9-2.33 2.93zm17.8 21.9s-7 .15-12.76 3.96a18.25 18.25 0 0 0-2.72 2.2 18.17 18.17 0 0 0-3.08 4.2c-2.94 5.4-3.07 11.27-3.07 11.27s5.03-.1 10.07-2.45a18.82 18.82 0 0 0 5.41-3.7c5.97-5.97 6.15-15.47 6.15-15.47zm53.68-15.5c5.97-5.98 6.15-15.48 6.15-15.48s-6.75.14-12.45 3.75a17.6 17.6 0 0 0-3.03 2.4c-5.97 5.97-6.15 15.47-6.15 15.47s8.84-.18 14.83-5.55c.21-.2.44-.39.65-.6zm4.16 17.44a19.53 19.53 0 0 0-6.62 4.22c-5.97 5.97-6.15 15.47-6.15 15.47s6.34-.12 11.91-3.41a19.03 19.03 0 0 0 3.57-2.74 17.68 17.68 0 0 0 2.58-3.31c3.44-5.64 3.57-12.16 3.57-12.16s-3.3.07-7.24 1.34c-.53.17-1.07.37-1.62.59zm-45.02-41.52c.85 2.93 2.36 6.35 5.05 9.04 5.97 5.97 15.48 6.15 15.48 6.15s-.19-9.2-5.89-15.2l-.26-.28c-5.97-5.97-15.48-6.15-15.48-6.15s.06 2.87 1.1 6.44zm14.38 30.7c-5.97-5.97-15.48-6.15-15.48-6.15s.18 9.51 6.15 15.48c5.98 5.97 15.48 6.15 15.48 6.15s-.18-9.5-6.15-15.48zm6.15 46.47s-.06-2.94-1.13-6.57c-.86-2.9-2.37-6.25-5.02-8.9-5.97-5.98-15.48-6.16-15.48-6.16s.19 9.07 5.77 15.06l.38.42c.24.24.5.46.76.69 5.98 5.28 14.72 5.46 14.72 5.46zM405.13 63.81c2.7 2.7 6.2 4.1 9.04 4.82 2.85.73 5.03.77 5.03.77s-.16-8.64-5.59-14.07a19.1 19.1 0 0 0-8.3-4.62c-3.2-.92-5.77-.97-5.77-.97s.16 8.64 5.6 14.07zm-42.5 21.1c-2.3-.49-3.94-.52-3.94-.52s.04 1.84.6 4.34c.67 2.94 2.06 6.8 5 9.73.36.37.75.71 1.15 1.04 5.42 4.4 12.91 4.55 12.91 4.55s-.16-8.64-5.59-14.07a17.32 17.32 0 0 0-5.8-3.75 23.92 23.92 0 0 0-4.34-1.33zm15.72 47.32s-.16-8.64-5.59-14.07a19.1 19.1 0 0 0-8.3-4.62c-.86-.25-1.67-.44-2.4-.57-2-.37-3.37-.4-3.37-.4s.04 1.54.48 3.73c.4 1.99 1.14 4.5 2.52 6.9a16.14 16.14 0 0 0 2.6 3.44c2.7 2.7 6.2 4.1 9.02 4.82 2.86.72 5.04.77 5.04.77zm16.5-56.14-.25.22c-5.43 5.43-5.59 14.07-5.59 14.07s8.64-.16 14.07-5.59c2.62-2.62 4.01-5.98 4.75-8.76.8-2.99.84-5.3.84-5.3s-8.38.16-13.82 5.36zm-.25 28.4c-5.43 5.43-5.59 14.07-5.59 14.07s8.65-.16 14.08-5.6c5.43-5.42 5.59-14.06 5.59-14.06s-8.65.16-14.08 5.59zm0 28.17a19 19 0 0 0-4.55 8.07c-.99 3.32-1.04 6-1.04 6s8.32-.16 13.76-5.3l.31-.28c5.43-5.43 5.6-14.08 5.6-14.08s-8.65.16-14.08 5.6zm47.26-33.2s-.16-8.63-5.59-14.06c-5.43-5.44-14.07-5.6-14.07-5.6s.16 8.65 5.6 14.08c5.42 5.43 14.06 5.59 14.06 5.59zm0-29.78s-.16-8.64-5.59-14.07S422.2 50 422.2 50s.16 8.65 5.6 14.08c5.42 5.43 14.06 5.59 14.06 5.59zm0 62.55s-.16-8.64-5.59-14.07-14.07-5.6-14.07-5.6.16 8.65 5.6 14.08c5.42 5.43 14.06 5.59 14.06 5.59zm24.73-60.04a17.93 17.93 0 0 0 3.96-6.33c1.56-4.07 1.63-7.74 1.63-7.74s-4.67.1-9.3 2.3c-1.67.8-3.33 1.85-4.77 3.29-3.92 3.92-5.09 9.51-5.44 12.31-.13 1.08-.15 1.76-.15 1.76s3.87-.08 8.06-1.76a17.73 17.73 0 0 0 6.01-3.83zm5.6 19.83s-8.65.16-14.08 5.6c-5.43 5.42-5.59 14.06-5.59 14.06s8.65-.16 14.08-5.59c5.42-5.42 5.58-14.07 5.58-14.07zm-5.6 45.69c5.43-5.43 5.6-14.07 5.6-14.07s-8.65.16-14.08 5.59c-3.87 3.87-5.06 9.36-5.42 12.2-.15 1.14-.17 1.87-.17 1.87s4.05-.08 8.35-1.87a17.62 17.62 0 0 0 5.72-3.72zm34.2-33.66s-.16-8.64-5.59-14.07-14.07-5.6-14.07-5.6.16 8.65 5.59 14.08 14.07 5.6 14.07 5.6zm0 28.18s-.16-8.64-5.59-14.07-14.07-5.6-14.07-5.6.16 8.65 5.59 14.08 14.07 5.59 14.07 5.59zm26.26-17.73c5.43-5.43 5.59-14.07 5.59-14.07s-8.64.16-14.07 5.58c-.63.63-1.18 1.31-1.68 2-3.78 5.32-3.91 12.08-3.91 12.08s6.13-.13 11.31-3.42a16 16 0 0 0 2.76-2.17zm-2.34 26.93c3.22-5.16 3.35-11.21 3.35-11.21s-8.65.16-14.08 5.59a17.57 17.57 0 0 0-3.68 5.62c-1.83 4.34-1.9 8.45-1.9 8.45s8.64-.16 14.07-5.6c.88-.88 1.61-1.85 2.24-2.85zm-37.34 136.69a14 14 0 0 0 1.16 1.03c5.42 4.41 12.91 4.56 12.91 4.56s-.16-8.65-5.59-14.08c-.52-.53-1.09-.99-1.67-1.42a21.07 21.07 0 0 0-7.46-3.42c-2.8-.7-4.94-.75-4.94-.75s.16 7.91 4.94 13.35c.2.25.42.5.65.73zm-.66 27.45c.22.24.43.49.66.72 2.7 2.7 6.2 4.1 9.03 4.82 2.86.73 5.04.77 5.04.77s-.16-8.64-5.59-14.07a19.1 19.1 0 0 0-8.3-4.62l-.84-.23c-2.8-.7-4.93-.74-4.93-.74s.16 7.91 4.94 13.35zm31.23-49.82-.25.22c-5.43 5.43-5.59 14.07-5.59 14.07s8.64-.16 14.07-5.59c2.62-2.62 4.01-5.98 4.75-8.77.8-2.98.84-5.3.84-5.3s-8.38.16-13.82 5.37zm-.25 28.4c-5.43 5.42-5.59 14.06-5.59 14.06s8.65-.16 14.08-5.59 5.59-14.07 5.59-14.07-8.65.16-14.08 5.6zm8.48 36.65c5.43-5.43 5.6-14.07 5.6-14.07s-8.65.16-14.08 5.59a19 19 0 0 0-4.55 8.06l-.56-.13-4.63 29.61c.63.21 1.29.38 1.96.5l6.46-20.27-.81-4.12c.7-.14 1.48-.31 2.3-.55a19.38 19.38 0 0 0 8-4.33l.31-.29zm24.71-42.68c5.43 5.42 14.07 5.59 14.07 5.59s-.16-8.65-5.59-14.08-14.07-5.59-14.07-5.59.16 8.65 5.6 14.08zm14.07 33.76s-.16-8.64-5.59-14.07-14.07-5.59-14.07-5.59.16 8.64 5.6 14.07c5.42 5.43 14.06 5.6 14.06 5.6zm12.82-55.91c-5.43 5.43-5.6 14.07-5.6 14.07s8.65-.16 14.08-5.6c.6-.6 1.13-1.24 1.6-1.9 3.85-5.34 3.99-12.16 3.99-12.16s-2.53.05-5.7.95c-2.6.74-5.61 2.04-8.06 4.35l-.31.29zm3.43 28.17c-5.43 5.43-5.59 14.07-5.59 14.07s8.64-.16 14.07-5.59c.23-.22.43-.46.64-.7 4.8-5.44 4.96-13.37 4.96-13.37s-2.49.06-5.62.93c-2.72.76-5.93 2.14-8.46 4.66zm-2.29 28.18c-2.62 2.62-4 5.98-4.74 8.77-.8 2.98-.85 5.3-.85 5.3s8.32-.17 13.76-5.3l.32-.29a16.46 16.46 0 0 0 2.73-3.68c2.74-4.96 2.86-10.4 2.86-10.4s-1.01.03-2.54.27c-2.98.46-7.95 1.74-11.54 5.33z"/>
  <path fill="#E84393" d="M215.65 345.9h2.4v3.89c-.28.2-.52.43-.68.74-.45.88-.22 1.98.35 2.78.1.14.21.26.32.38v5c-1.1.03-2.23.58-2.7 1.58-.46 1.01-.16 2.26.52 3.15.33.44.75.8 1.2 1.12l-12.59 14.5-.7-15.66a4.6 4.6 0 0 1 4.59-4.75h2.87a4.42 4.42 0 0 0 4.42-4.42v-8.31zm-45.79-149.17a13.2 13.2 0 0 1 3.22 5.27l1.64 1.03 5.48-6.31a18.43 18.43 0 0 1-3.22-3.78c-.28-.18-.55-.38-.82-.57-3.94 2.29-8.37 2.37-8.37 2.37s.07-3.74 1.85-7.4a70.77 70.77 0 0 1-13.08-15.07v37.77l9.6-9.6 3.7-3.7zm2.54-24.8a72.8 72.8 0 0 0 1.68 1.83v-2.41c-.57.22-1.13.42-1.68.58zm414.68 149.16c-5.44 5.13-13.76 5.3-13.76 5.3s.05-2.32.84-5.3h-3.12l6.03 30.43.14.3-.07.04 1.78 9 1.45-.38a81.59 81.59 0 0 1 2.22 9.28 291.97 291.97 0 0 0 7.28-48.67h-2.8zM369.83 86.85c-.67-.08-1.7-.3-2.87-.63.82.34 1.66.74 2.47 1.22l.4-.6zm211.7 287.22.57-2.3-.99.16.43 2.14zm-65.15-43.98 1.49-4.67c-.83.24-1.6.42-2.31.55l.82 4.12zm-107.34-29.01v9.85l6.4-7.36a44.78 44.78 0 0 1-6.4-2.49zm-40.78-110.7 3.82-4.4-.42-.86a13.22 13.22 0 0 1-8.14 3.83 58.8 58.8 0 0 0 4.74 1.42zM103.3 167.1a17.2 17.2 0 0 1-4.53-2.36c.28 2-.88 2.26-3.48.76.13.49.2.91.25 1.3a18 18 0 0 1 2.66 2.2c6.22 6.22 6.4 16.12 6.4 16.12s-4.43-.09-9.23-2V199c.99.66 1.95 1.4 2.83 2.28 6.22 6.23 6.4 16.13 6.4 16.13s-5.1-.1-10.29-2.47a18.33 18.33 0 0 1-17.28 12.25H71c-.21 11.1.24 22.34 8.58 30.7 7 7.02 16.09 8.46 25.4 8.6V158.81c-1.06-.47-2.09-1-3.03-1.64 1.19 3.1 1.6 6.64 1.35 9.94zm158.95-7.62c-6.3 1.37-12.63 1.7-19 1.77v21.5l19-21.9v-1.37zm-55.4 46.6s-1.1-.03-2.67-.33a41.52 41.52 0 0 1-10.08 16.15c-8.77 8.77-19.04 11.85-29.95 12.91l-7.6 8.76v39.04l.41-.48 7.8-39.35 4.9 24.73 48.37-55.73V205c-3.8-.09-7.6-.3-11.37-.78.17 1.12.19 1.85.19 1.85zm149.8 122.24a3.57 3.57 0 0 1-.55-1.66l-5.8 6.69 3.06 15.49a4.62 4.62 0 0 1 2.34-.48 8.7 8.7 0 0 1 4.3 1.76 21.92 21.92 0 0 1 6.57 8.42l.06-12c-3-.1-6.27-1.42-8.83-2.79a8.26 8.26 0 0 1-2.95-2.35c-.73-1.04-1.03-2.46-.45-3.6.62-1.22 2.13-1.8 3.5-1.68 1.38.13 2.62.85 3.72 1.69a19.36 19.36 0 0 1 5.03 6.45l.08-11.03c-2.62-.18-5.44-1.46-7.62-2.77a7.18 7.18 0 0 1-2.46-2.14zm229.47-77a290.27 290.27 0 0 0-9.1-37.35c.03 3.15 0 6.3-.2 7.95a24 24 0 0 1-4.2-3.67c-.61.48-1.25.92-1.9 1.3a18.34 18.34 0 0 1-17.48 12.8h-7.28c1.07 3.63 1.13 6.57 1.13 6.57s-8.74-.18-14.72-5.46c-1.93 4-4.55 7.8-8.1 11.36-10.79 10.78-23.85 12.96-37.56 13.36v6.6c2.3.57 5.04 1.6 7.46 3.42a32.64 32.64 0 0 1 23.76-12.46c5.44-5.2 13.83-5.37 13.83-5.37s-.05 2.32-.85 5.3h22.06l2.55-12.9 2.56 12.9h20a19.43 19.43 0 0 1 8.04-4.35zm-99.42 68.35c.67.08 1.32.22 1.95.4l-1.95-12.45v12.05zM76.61 284.7c.33.28.66.57.97.88 5.43 5.43 5.6 14.08 5.6 14.08s-6.69-.13-12-3.85a32.73 32.73 0 0 1-17.83 11.98l2.96 14.94 6.8 8.87 4.53-5.22-7.77-14.14a81.58 81.58 0 0 1 16.88-6.91l2.46 7.72 6.86-7.9-.28-1.84c.71-.12 1.43-.22 2.15-.32l17.01-19.6c-9.58-.28-18.85-1.44-27.24-5.8-.1 2.45-.48 4.83-1.1 7.12zm449.32 78.92.84.48 5.47-3.74.9-4.5-7.29 6.73c.04.34.07.68.08 1.03zm.56 17.54 1.58.25.14-.7-1.75.29.03.16zm-117.45-51.5v21.17a13.9 13.9 0 0 1 2.6-.25c7.35 0 13.33-5.81 13.64-13.08-3.47 1.07-6.33 1.13-6.33 1.13s.16-8.64 5.6-14.07c3.23-3.24 7.6-4.6 10.6-5.17v-13.08c-1.88-.05-3.75-.14-5.6-.28l-20.51 23.62zm-54.15 26.85.87 4.36c1.14.33 2.23.92 3.23 1.58a18 18 0 0 1 3.04 2.63l4.54-5.23c-3.55.16-7.55-1.27-10.67-2.8a15.9 15.9 0 0 1-1-.54zm11.63 27.98v-5.87l-2.13 2.47c.8 1.1 1.55 2.25 2.13 3.4zM98.56 321.12c1.27-.57 2.53-1 3.7-1.31l.61-14.4-4.75 5.48.44 10.24zm278.22 64.45 7.04-1.14v-1.51c-.41.21-.83.4-1.26.6a41.7 41.7 0 0 1-5.78 2.05zM197.17 359.6a4.56 4.56 0 0 1 0-.94c-1.15.07-2.2.55-2.96 1.31.38 1.16.6 2.38.66 3.65 1.1.6 2.19 1.34 3.18 2.24l-.88-6.26zm-135-7.3.8 4.1 4.76 3.24c.34-.96.78-1.87 1.32-2.71l-6.04-5.6-.84.98zm8.92-10.27 6.75 8.82c.89-.18 1.8-.27 2.74-.27l.35-.02-6.69-12.16-3.15 3.63zm123.8 36.13v1.06c0 1.9-.38 3.7-1.07 5.33l.07 1.67 5.06-.82 1.6-1.84-.52-3.66a23.87 23.87 0 0 1-5.13-1.74zm65.63-118.97v6.9l.28.08a9.02 9.02 0 0 1 7.8-9.2l1.01-5.12c-1.19.05-2.37.12-3.54.26-4.21.51-5.55 3.28-5.55 7.08zm259.68 90.18.72 3.66 17.1-21.86 2-10.08h-3.86l-15.96 28.28zM358.5 323.9c.34-.04.68-.05 1 0a6.5 6.5 0 0 1 3.14 1.6 16.72 16.72 0 0 1 4.1 5.84l.13-11.39a11.85 11.85 0 0 1-3.87-1.23l-4.5 5.18zm12.8 49.2-2.03 2.35.08 9.03c1.97-4.01 5.74-8.04 8.48-9.8 1.64-1.04 3.48-1.92 5.44-1.96l.55.03v-4.08c-.81.62-1.72 1.13-2.66 1.57-2.9 1.35-6.47 2.6-9.85 2.86zM253.5 147.91a52.55 52.55 0 0 0 8.77-1.7v-24.4l-13.88 16 3.67-3.68 3.06-3.06a10.9 10.9 0 0 1 2.66 4.35l4.32 2.7h-3.8a10.93 10.93 0 0 1-4.8 9.8zM87.89 338.63s.09-4.32 2.05-8.77l-1.26-8.09-4.9 5.63 6.2 19.4c.84-.79 1.58-1.7 2.2-2.68l-.93-5.9c-1.98.38-3.36.41-3.36.41zm279-20.05.09-4.43-1.38 1.58c.53.9 1 1.88 1.3 2.85zm16.94 42.35v-2.24l-1.59 1.83c.55.05 1.09.2 1.6.4zm-15.34-42.36a14.16 14.16 0 0 1 3.19-5.42 5.52 5.52 0 0 1 2.55-1.54c.98-.21 2.13.08 2.69.92.51.77.42 1.83-.02 2.65a6.03 6.03 0 0 1-1.94 1.95c-1.81 1.27-4.19 2.55-6.44 2.82.08 3.52.15 7.35.21 11.38a16.73 16.73 0 0 1 4.06-5.87 6.53 6.53 0 0 1 3.13-1.62c1.18-.18 2.5.26 3.1 1.29.55.94.37 2.19-.22 3.12-.58.93-1.5 1.6-2.44 2.16-2.17 1.32-4.98 2.62-7.6 2.82l.16 11.03a19.36 19.36 0 0 1 4.98-6.49 7.55 7.55 0 0 1 3.7-1.71c1.38-.14 2.9.44 3.53 1.66.58 1.13.3 2.56-.43 3.6a8.26 8.26 0 0 1-2.94 2.37c-2.54 1.39-5.8 2.73-8.8 2.85l.12 10.42 14.75-16.99v-45.23l-15.51 17.87c.06 1.44.12 3.33.17 5.96zm-4.2-191.93a16.36 16.36 0 0 1-2.6-3.44l-27.56 31.74v11.79a59.25 59.25 0 0 0 17.04 16.3 13.25 13.25 0 0 1-2.14-8.14h-4.6l5.23-3.27a13.2 13.2 0 0 1 3.22-5.28l18.78 18.78.65.59 11.52-13.27v-33.7a32.76 32.76 0 0 1-10.52-7.28c-2.83-.72-6.33-2.12-9.03-4.82zM187.52 323.82l-5.46 6.29 4.25 21.46a13.6 13.6 0 0 1 4.5 2.94h1.61v-27.36c0-.9.1-1.79.28-2.64h-.3c-1.67 0-3.31-.24-4.88-.7zm55.72 30.17v15.37c.23 0 1.29.06 2.74.35l-1.11-17.6-1.63 1.88zM354 204.97s.56.02 1.47.12l3.52-4.05a72.7 72.7 0 0 1-24.87-14.86v19.26a2.6 2.6 0 1 1-5.18 0v-24.51a72.68 72.68 0 0 1-7.97-10.84l-68.08 78.42v17.38h3.79v-19.02c0-2.47 3.83-2.47 3.83 0v2.92c1.99-1.25 4.42-1.58 6.9-1.62v-7.43c0-2.47 3.84-2.48 3.84 0v2.82l2.32-11.73 3.29 16.6 3.6.12v-11.9c0-2.47 3.83-2.48 3.83 0v11.98c1.7 0 3.39-.1 4.98-.35 7.04-1.15 4.73-13.34 4.73-18.54 0-2.47 3.84-2.47 3.84 0 0 4.95.8 10.53-.17 15.4-1.33 6.7-7.46 6.97-12.93 6.97-2.34 0-4.76-.1-7.19-.2l6.93 34.96 33.12-38.15 7.96-40.21 5 25.27 23.58-27.15c-.13-1.02-.14-1.66-.14-1.66zm68.54-57.52c1.1-.18 2.21-.4 3.31-.66 3.2-.77 6.3-1.8 9.3-3.07v-2.29h-7.38l-5.23 6.02zm90.8 83.9a18.37 18.37 0 0 1-10.64-9.6l-16 18.43v1.1c9.32-.16 18.38-1.6 25.41-8.6.43-.44.84-.89 1.23-1.33zM358.7 112.56s1.38.03 3.36.4l2.11-2.42a32.84 32.84 0 0 1 1.28-11.04c-.4-.32-.79-.67-1.16-1.04-2.93-2.93-4.32-6.79-4.98-9.73l-25.17 28.99v27.41l25.03-28.83c-.44-2.19-.47-3.74-.47-3.74zm4.76 135.48a15.98 15.98 0 0 1-4.13-2.93c-5.16-5.16-5.31-13.37-5.31-13.37s3.67.08 7.65 1.67v-13.17a15.6 15.6 0 0 1-1.4-1.04l-26.52 30.56 7.36 37.12 27.85-32.08a18.38 18.38 0 0 1-5.5-6.76zm66.85 2.38s-3.18-.06-6.83-1.35l-14.43 16.63v14.35l.7.75c5.23 5.23 11.6 7.36 18.37 8.16l7.05-8.11v-45.23l-6.43 7.4c1.5 3.88 1.57 7.4 1.57 7.4zm-19.71-89.18-1.55 1.78v35.16c2.34.63 4.48 1.7 6.36 3.12l19.76-22.76V157.5c-1.7.57-3.4 1.08-5.13 1.52-6.43 1.64-12.91 2.08-19.44 2.2zM14.64 373.17l12.74-64.3H5.98c.5 22.13 3.5 43.65 8.66 64.3zm228.61 6.27.1.2c.36.86.27 1.83-.1 2.7v2.5h.02l1.67-8.45a19.06 19.06 0 0 1-1.69-6.22v9.27zm74.46-215.4a70.8 70.8 0 0 1-4.8-13.15 63.6 63.6 0 0 1-1.36-7.16l-68.3 78.67v25.8c.44.03.87.07 1.3.12l73.16-84.28zM55.17 245.06a92.92 92.92 0 0 1-1.09-12.19c-3.74 1.1-6.74 1.15-6.74 1.15s.06-3.06 1.17-6.84h-8.35c-4 0-7.68-1.3-10.7-3.46 0 .4-.03.82-.06 1.23a17.2 17.2 0 0 1-4.53-2.37c.28 2.01-.88 2.27-3.48.77 1.39 5.4-2.46 4.72-5.54 2.75a290.45 290.45 0 0 0-4.1 17.35h24.48c5.44-5.13 13.75-5.3 13.75-5.3s-.05 2.45-.9 5.56c2.1.26 4.13.71 6.1 1.35zm269.99-98.34c.53 2.2 1.2 4.37 1.97 6.48l1.82-2.1v-27.41l-5.4 6.23c.02 5.64.27 11.25 1.61 16.8zM176.06 299.8l3.21 16.2h6.53l32.26-37.15v-27.33l-.06-.02-41.93 48.3zm322.21-92.3c.66-.66 1.37-1.24 2.1-1.76l.61-.72v-14.97c-4.6 1.84-8.86 1.93-8.86 1.93s.14-6.82 3.82-12.54c-1.3-3.13-1.95-7.04-3.17-10.2l-.23-.56-.35 1.24a21.21 21.21 0 0 1-2.23 4.89c-.34-.4-.66-.8-.97-1.2l-2.28 2.62v45.23l8.48-9.76c.8-1.48 1.8-2.92 3.08-4.2zm-11.07 80.88c0-3.2.47-6.3 1.33-9.22-.4-.33-.78-.67-1.16-1.04l-.65-.72v15.57c.27.06.55.14.84.23a33.04 33.04 0 0 1-.36-4.82zm-78.16-146.95v1.97l1.7-1.97h-1.7zm-228 178.93a16.52 16.52 0 0 1-.9-.82l-.2-.18.55 2.76 1.12-1.3-.33-.26a7.5 7.5 0 0 1-.24-.2zm81.22-234.28a32.81 32.81 0 0 1-4.8-5.98c.67 3.71-.79 7.44-3.53 9.98a15.95 15.95 0 0 1-3.45-5 21.22 21.22 0 0 1-2.6 6.12 21.51 21.51 0 0 1-2.94-4.32c-.44 1.43-1 2.8-1.69 4.13v33.08l19-21.9V86.1zM198.9 316.01a12.78 12.78 0 0 1 6.38-1.71h12.76v-25.64L194.31 316h4.6zm70.7-235.17s-1.2 4.01-2.15 6.27v9.1l8.4-9.66-6.25-5.71zm-71.14 58.13c-5.44 5.14-13.76 5.3-13.76 5.3s.05-2.31.84-5.3h-27.39a54.4 54.4 0 0 0 1.23 7.74 59.5 59.5 0 0 0 9.43 20.65c.64-1.9 1.67-3.97 3.35-5.65a14.53 14.53 0 0 1 5.82-3.4 18.29 18.29 0 0 1 14.3-7.07c-.74-2.54-.78-4.59-.78-4.59s6.75.13 11 4.37l.18.2h3.25c4.01 0 7.71 1.31 10.73 3.5l1.4-1.6v-19.98a32.54 32.54 0 0 1-18.64 5.83h-.96zm46.64 120.55a9.02 9.02 0 0 1 2.64 6.57c.44-.1.88-.16 1.34-.19v-6.72c0-1.93-.35-3.6-1.24-4.83l-3.75 4.31a9 9 0 0 1 1 .86zm48.79-135.09a59.83 59.83 0 0 0 10.22-22.25c1.08-4.7 1.37-9.47 1.44-14.25a65.7 65.7 0 0 1-3.93-5.89 47.84 47.84 0 0 1-2.28 9.14c-2-1.86-3.58-4.34-4.47-6.92l-.01.01a17.73 17.73 0 0 1-2.98 8.63 64.83 64.83 0 0 1-1.71-3.23l-22.72 26.17v28.65a59.38 59.38 0 0 0 20.45-13.17l5.99-6.89zm-30.4 145.62v12.79l2.92-14.75a9.09 9.09 0 0 1-3.2.5c.17.45.28.95.28 1.47zm29.47 59.54c2.11.35 5.39 1.25 7.94 3.51l11.68-58.96-24.92 28.7 5.3 26.75zm26.08-248.85c.8 4.42.62 8.99-.42 13.36l-.46-.51a98.81 98.81 0 0 1-.25 3.17l8.17-9.42c-2.65-2.43-5.26-6.23-7.04-6.6zm9.92 3.28v-3.05c-.5-.57-.96-1.16-1.38-1.8.46 1.75.75 3.56.93 5.38l.45-.53zm-85.7 230.27h1.6a6.84 6.84 0 0 0 6.84-6.84v-26.02h-8.44v32.86z"/>
  <path fill="#FBC02D" d="m223.2 381.7-.64-.1-9.82 1.58a3.78 3.78 0 0 1-.5-3.43c.56-1.4 2.16-2.18 3.67-2.17.73 0 1.45.17 2.14.43.72.27 1.42.65 2.07 1.06.93.58 2.02 1.52 3.07 2.63zm14.84-6.13a8.16 8.16 0 0 0 3.04-2.15c.78-.98 1.15-2.37.65-3.51-.55-1.25-2-1.91-3.37-1.86-1.36.06-2.62.7-3.75 1.45a19.06 19.06 0 0 0-5.79 7.03c-.02-2.92-.06-5.93-.1-8.99 2.75.1 5.84-1.02 8.24-2.22 1-.5 1.98-1.1 2.65-2 .67-.89.97-2.13.5-3.14-.53-1.1-1.84-1.65-3.05-1.57a6.66 6.66 0 0 0-3.31 1.39 16.93 16.93 0 0 0-5.03 6.54l-.12-9.27c2.32-.1 4.84-1.13 6.8-2.2a6.38 6.38 0 0 0 2.27-1.83c.56-.8.79-1.91.33-2.78-.49-.95-1.66-1.4-2.72-1.28-1.05.1-2.01.67-2.86 1.32a14.96 14.96 0 0 0-3.84 5.01l-.12-8.52c1.27-.1 2.6-.53 3.84-1.1h-9.33c1.26.58 2.62 1.02 3.92 1.1l-.06 8.53a14.95 14.95 0 0 0-3.88-4.99 5.83 5.83 0 0 0-2.87-1.3 3.01 3.01 0 0 0-2.04.56c-.27.2-.51.43-.67.74-.45.88-.22 1.98.35 2.78a7.23 7.23 0 0 0 2.28 1.81c1.98 1.06 4.5 2.08 6.82 2.16l-.05 9.27a16.93 16.93 0 0 0-5.08-6.5c-.99-.7-2.1-1.3-3.32-1.37h-.33c-1.1.04-2.23.6-2.7 1.6-.47 1-.16 2.25.51 3.14.34.44.75.8 1.2 1.12.32.22.65.42 1 .6l.47.25c2.41 1.18 5.5 2.29 8.25 2.16l-.03 8.99a19.05 19.05 0 0 0-5.83-6.98 8.61 8.61 0 0 0-2.87-1.3c-.3-.07-.6-.12-.9-.13-1.36-.04-2.81.63-3.35 1.88-.5 1.15-.12 2.54.67 3.51a8.13 8.13 0 0 0 3.06 2.13l.52.23c2.63 1.14 5.84 2.13 8.7 1.95l-.01 4.42 2.15.34-.05-4.77c3.06.17 6.51-.99 9.21-2.25zm5.21 3.88c-.64-1.28-2.15-1.98-3.58-1.96-1.51.03-2.93.7-4.2 1.52a19.23 19.23 0 0 0-4.2 3.95l10.14 1.59c.41-.3.8-.64 1.14-1.04.29-.34.52-.75.7-1.17.37-.87.46-1.84.1-2.7l-.1-.2zm140.58-6.7c-.18-.01-.37-.03-.55-.02-1.96.03-3.8.9-5.44 1.96-2.74 1.75-6.5 5.78-8.48 9.8l-.08-9.04-.02-2.3c.67.04 1.36 0 2.06-.05 3.39-.26 6.95-1.51 9.85-2.86.94-.44 1.85-.94 2.66-1.57.47-.36.91-.75 1.28-1.21 1-1.27 1.49-3.07.83-4.56a3.94 3.94 0 0 0-2.1-1.97 5.18 5.18 0 0 0-2.25-.43c-1.76.07-3.4.9-4.86 1.88-2.46 1.65-5.81 5.41-7.5 9.1l-.12-11.64c3.56.14 7.55-1.32 10.66-2.88a9.41 9.41 0 0 0 3.44-2.57c.25-.34.46-.73.62-1.13.38-.96.45-2.03 0-2.95v-.01c-.68-1.41-2.37-2.12-3.93-2.02-1.56.1-3 .89-4.28 1.8a21.9 21.9 0 0 0-6.52 8.47l-.02-1.59-.13-10.42c3-.12 6.26-1.46 8.81-2.85a8.27 8.27 0 0 0 2.94-2.37c.73-1.04 1.01-2.47.43-3.6-.64-1.22-2.15-1.8-3.53-1.66a7.55 7.55 0 0 0-3.7 1.71 19.36 19.36 0 0 0-4.98 6.5l-.16-11.04c2.62-.2 5.43-1.5 7.6-2.82a7.14 7.14 0 0 0 2.44-2.16c.58-.93.77-2.17.22-3.12-.6-1.03-1.93-1.47-3.1-1.29a6.52 6.52 0 0 0-3.13 1.63 16.74 16.74 0 0 0-4.06 5.87l-.2-11.4c2.24-.25 4.62-1.54 6.43-2.8a6.03 6.03 0 0 0 1.94-1.96c.44-.81.53-1.87.02-2.65-.56-.83-1.71-1.13-2.7-.91-.98.21-1.82.84-2.54 1.54a14.14 14.14 0 0 0-3.19 5.42c-.06-2.63-.11-4.53-.18-5.97-.16-3.8-.33-4.28-.52-5.83.6-.48 2.95-6.3 3.08-7.43.03-.32.78-4.91-3.29-4.9-4.07.02-3.3 4.6-3.25 4.92.13 1.14 2.53 6.94 3.13 7.41-.2 1.74-.36 2.1-.48 7.37-.03 1.2-.06 2.65-.08 4.43a14.2 14.2 0 0 0-1.3-2.84 12.03 12.03 0 0 0-1.93-2.55 5.51 5.51 0 0 0-2.56-1.52c-.98-.21-2.13.1-2.68.93-.51.78-.41 1.84.04 2.65a6.04 6.04 0 0 0 1.95 1.94c.78.54 1.66 1.07 2.6 1.53 1.24.62 2.57 1.1 3.86 1.24l-.13 11.38a16.73 16.73 0 0 0-4.1-5.84 6.53 6.53 0 0 0-3.14-1.6 3.54 3.54 0 0 0-1 0c-.86.13-1.67.57-2.1 1.31-.25.45-.33.95-.3 1.46.04.59.24 1.17.55 1.66a7.14 7.14 0 0 0 2.46 2.15c2.18 1.3 5 2.58 7.62 2.76l-.08 11.03a19.37 19.37 0 0 0-5.03-6.45 7.55 7.55 0 0 0-3.71-1.68c-1.38-.13-2.89.45-3.51 1.68-.58 1.13-.28 2.56.45 3.6a8.26 8.26 0 0 0 2.95 2.34c2.56 1.38 5.83 2.7 8.83 2.8l-.06 12a21.92 21.92 0 0 0-6.57-8.42 8.6 8.6 0 0 0-4.3-1.77c-.8-.05-1.63.12-2.34.48-.68.35-1.26.88-1.59 1.58-.6 1.31-.21 2.92.67 4.07a7.98 7.98 0 0 0 2.44 2.02c.33.19.67.37 1.01.53 3.12 1.53 7.12 2.96 10.67 2.8 0 3.96-.02 7.86-.03 11.64a25.07 25.07 0 0 0-4.5-6.4 18.65 18.65 0 0 0-3.05-2.64c-1-.66-2.1-1.24-3.24-1.57a6.73 6.73 0 0 0-1.64-.27c-1.76-.06-3.64.81-4.34 2.43-.64 1.49-.15 3.28.87 4.55a10.57 10.57 0 0 0 3.96 2.75c.66.3 1.37.6 2.1.88 3.1 1.22 6.64 2.15 9.84 1.94l-.02 5.47v5.87a23.98 23.98 0 0 0-2.13-3.41c-2-2.7-4.47-5.1-6.42-6.32a14.3 14.3 0 0 0-3.05-1.5 7.86 7.86 0 0 0-2.4-.43 5.67 5.67 0 0 0-3.26 1c2.75 2.94 3.59 6.96 3.83 9l20.65 3.22 3.04-.49a41.25 41.25 0 0 0 7.05-2.65 9.96 9.96 0 0 0 3.18-2.4c1.15-1.37 1.73-3.36 1.04-5.02-.68-1.64-2.44-2.6-4.22-2.75zm-362-163.83c.52.72 1.1 1.42 1.75 2.07 6.22 6.22 16.12 6.4 16.12 6.4s-.18-9.9-6.4-16.12a20.91 20.91 0 0 0-7.8-4.74c1.8-4.69 3.73-9.31 5.77-13.88 6.11 4.4 13.93 4.56 13.93 4.56s-.18-9.9-6.4-16.12c-.46-.45-.93-.86-1.41-1.25 2.8-5.51 5.77-10.91 8.9-16.22h7.18c-5.94 6.24-6.13 15.83-6.13 15.83s9.9-.18 16.12-6.4c2.81-2.81 4.38-6.37 5.27-9.43h8.31c8.07 0 14.9 5.22 17.36 12.46-5.79-3.38-12.32-3.5-12.32-3.5s.18 9.9 6.4 16.13a20.33 20.33 0 0 0 6.9 4.4v15.88c-6-3.98-13.3-4.12-13.3-4.12s.18 9.9 6.4 16.12a19.72 19.72 0 0 0 5.84 3.94 18.33 18.33 0 0 1-17.28 12.25H63.86c5.81-6.24 6-15.69 6-15.69s-9.9.19-16.12 6.4c-2.76 2.77-4.33 6.26-5.23 9.29h-8.35c-4 0-7.68-1.3-10.7-3.46a18.3 18.3 0 0 1-7.63-14.8zm25.5-7.18s9.9-.19 16.13-6.4c6.22-6.23 6.4-16.13 6.4-16.13s-9.9.18-16.12 6.4c-6.22 6.22-6.4 16.13-6.4 16.13zm158.72-.33a14.86 14.86 0 0 0-3.56-6.33c-4.25-4.24-11-4.37-11-4.37s.13 6.45 4.1 10.7h-3.17a18.27 18.27 0 0 1-15.92-9.26c.8-.5 1.58-1.07 2.29-1.78 4.24-4.24 4.37-11 4.37-11s-4.98.1-9.07 2.81v-10.83c1.61-.65 3.3-1.6 4.7-3 4.24-4.25 4.37-11 4.37-11s-2.38.05-5.2.97a18.29 18.29 0 0 1 14.3-7.07c.61 2.08 1.68 4.5 3.6 6.42 4.24 4.24 11 4.37 11 4.37s-.13-6.55-4.19-10.8h3.25a18.23 18.23 0 0 1 12.12 4.6 18.4 18.4 0 0 1 3.55 4.25c-.7.47-1.4 1-2.03 1.63-4.25 4.24-4.37 11-4.37 11s4.97-.1 9.07-2.81v10.83c-1.62.65-3.3 1.6-4.7 3-4.25 4.25-4.37 11-4.37 11s2.7-.05 5.75-1.16a18.3 18.3 0 0 1-14.89 7.83zm.8-17.35s-.12-6.76-4.36-11c-4.25-4.25-11-4.37-11-4.37s.12 6.75 4.37 11c4.24 4.24 11 4.37 11 4.37zM65.48 138.98a32.5 32.5 0 0 1-8.42-1.1c2.72-.31 8.51-1.44 12.54-5.47 5.43-5.43 5.6-14.07 5.6-14.07s-2.19.04-5.05.77A293.97 293.97 0 0 1 94 92.82a16.2 16.2 0 0 0 2.45 3.2c5.43 5.42 14.07 5.58 14.07 5.58s-.16-8.64-5.6-14.07a16 16 0 0 0-2.9-2.27 293.22 293.22 0 0 1 38.56-29.52c.2.23.4.48.64.7 5.43 5.43 14.07 5.6 14.07 5.6s-.15-7.25-4.34-12.64a289 289 0 0 1 27.51-14.18 32.74 32.74 0 0 1 1.48 21.37c-5.43-4.56-13.1-4.71-13.1-4.71s.15 8.64 5.58 14.07c.66.66 1.36 1.23 2.09 1.74a32.9 32.9 0 0 1-5.72 5.89h21.8l-.31.28c-5.43 5.43-5.6 14.08-5.6 14.08s8.65-.17 14.08-5.6c2.54-2.54 3.92-5.77 4.68-8.5a32.58 32.58 0 0 1 18.36 8.61c-2.3-.48-3.92-.5-3.92-.5s.16 8.63 5.59 14.06a19 19 0 0 0 8.14 4.58 32.74 32.74 0 0 1-.63 14.24c-5.43-4.56-13.1-4.71-13.1-4.71s.16 8.64 5.58 14.07c.66.66 1.36 1.23 2.1 1.74a32.9 32.9 0 0 1-7.52 7.23 32.54 32.54 0 0 1-18.63 5.83h-.97c.1-.1.22-.19.32-.3 5.43-5.42 5.59-14.06 5.59-14.06s-8.64.16-14.07 5.59c-2.62 2.62-4.01 5.98-4.75 8.77h-50.6c.1-.1.22-.19.32-.3 5.43-5.42 5.59-14.06 5.59-14.06s-8.64.16-14.07 5.59c-2.62 2.62-4.01 5.98-4.75 8.77H65.47zm119.22-22.87s8.64-.16 14.07-5.59 5.6-14.07 5.6-14.07-8.65.16-14.08 5.59-5.59 14.07-5.59 14.07zm-30.32-34.17s.16 8.64 5.59 14.07 14.07 5.6 14.07 5.6-.16-8.65-5.59-14.08-14.07-5.59-14.07-5.59zm0 28.18s.16 8.64 5.59 14.07 14.07 5.59 14.07 5.59-.16-8.64-5.59-14.07-14.07-5.6-14.07-5.6zm-33.19-22.19s8.64-.16 14.07-5.59c2.62-2.62 4-5.98 4.75-8.76.8-2.99.84-5.3.84-5.3s-8.31.16-13.76 5.3l-.31.28c-5.43 5.43-5.59 14.08-5.59 14.08zm0 28.18s8.64-.16 14.07-5.59 5.6-14.07 5.6-14.07-8.65.16-14.08 5.59-5.59 14.07-5.59 14.07zm-30.32-6s.16 8.65 5.59 14.08 14.07 5.59 14.07 5.59-.16-8.64-5.59-14.07-14.07-5.6-14.07-5.6zM53.35 307.8a32.9 32.9 0 0 1-8.3 1.06h-.97l.31-.28c5.43-5.43 5.6-14.08 5.6-14.08s-8.65.17-14.08 5.6c-2.62 2.61-4 5.98-4.75 8.76H5.98a299.37 299.37 0 0 1 0-14.44c5.44 5.07 13.68 5.24 13.68 5.24s-.16-8.64-5.59-14.07a18.6 18.6 0 0 0-7.44-4.36c.33-4.78.78-9.53 1.35-14.24 5.4 4.35 12.83 4.5 12.83 4.5s-.16-8.65-5.6-14.08a17.4 17.4 0 0 0-5.36-3.57c.58-3.48 1.2-6.94 1.9-10.38h24.48l-.32.28c-5.43 5.43-5.59 14.07-5.59 14.07s8.64-.16 14.07-5.59c2.54-2.54 3.92-5.78 4.68-8.5a32.49 32.49 0 0 1 18.36 8.61c-2.29-.48-3.92-.51-3.92-.51s.16 8.64 5.59 14.07c2.43 2.43 5.5 3.8 8.15 4.58.32 1.85.5 3.75.5 5.69a33.8 33.8 0 0 1-1.14 8.55c-5.42-4.57-13.1-4.71-13.1-4.71s.16 8.64 5.59 14.07a16.2 16.2 0 0 0 2.09 1.74 32.74 32.74 0 0 1-17.84 11.99zm-3.37-41.47s-8.64.16-14.07 5.59-5.59 14.07-5.59 14.07 8.64-.16 14.07-5.59 5.6-14.07 5.6-14.07zm302.25-220.9c-2.7 2.69-4.13 6.15-4.89 9.01h-52.06c.1-.1.22-.19.32-.3 5.59-5.58 5.75-14.47 5.75-14.47s-8.9.16-14.48 5.75c-2.7 2.7-4.12 6.16-4.88 9.02h-52.07l.33-.29c5.58-5.59 5.75-14.48 5.75-14.48s-8.9.17-14.48 5.75a19.62 19.62 0 0 0-4.73 8.46 32.72 32.72 0 0 1-21.8-15c5.42 3.67 12.1 3.8 12.1 3.8s-.17-8.9-5.75-14.48a15.82 15.82 0 0 0-1.75-1.49c6.2-2.22 12.5-4.25 18.89-6.06-2.6 4.98-2.71 10.26-2.71 10.26s8.89-.16 14.48-5.75c2.58-2.58 4-5.86 4.78-8.65a291.4 291.4 0 0 1 18.36-3.45c.64 1.02 1.38 2 2.28 2.9 5.59 5.58 14.48 5.75 14.48 5.75s-.11-5.41-2.81-10.45a295.69 295.69 0 0 1 49.94-.98 18 18 0 0 0 3.74 5.68c5.59 5.58 14.48 5.75 14.48 5.75s-.1-5.1-2.57-10c7.08.83 14.08 1.93 21 3.26-.59.45-1.17.92-1.7 1.46-5.6 5.59-5.76 14.48-5.76 14.48s8.9-.17 14.48-5.75c2.3-2.3 3.68-5.16 4.5-7.73a289.92 289.92 0 0 1 29.53 8.64 32.4 32.4 0 0 1-.7 3.68c-5.59-4.85-13.66-5-13.66-5s.17 8.88 5.76 14.47c.77.77 1.6 1.43 2.46 2a32.65 32.65 0 0 1-26.26 13.23h-1.95l.32-.3c5.59-5.59 5.76-14.48 5.76-14.48s-8.9.16-14.48 5.75zm-82.08 5.27s-.17-8.9-5.75-14.48c-5.59-5.59-14.48-5.75-14.48-5.75s.16 8.89 5.75 14.48c5.59 5.58 14.48 5.75 14.48 5.75zm31.2-40.03s-8.9.17-14.48 5.76c-5.59 5.58-5.75 14.48-5.75 14.48s8.9-.17 14.48-5.76c5.59-5.58 5.75-14.48 5.75-14.48zM335.5 50.7s-.16-8.9-5.75-14.48c-5.59-5.59-14.48-5.75-14.48-5.75s.17 8.89 5.75 14.48c5.59 5.58 14.48 5.75 14.48 5.75zm61.01 207.83c4.83-5.17 4.98-13 4.98-13s-8.2.15-13.36 5.3a18.1 18.1 0 0 0-4.34 7.7H380a18.38 18.38 0 0 1-16.55-10.49 24 24 0 0 0 9.24 2.38s-.16-8.2-5.31-13.36a16.86 16.86 0 0 0-5.72-3.65v-13.17c4.98 3.3 11.03 3.41 11.03 3.41s-.16-8.2-5.31-13.36a15.8 15.8 0 0 0-3.71-2.71A18.34 18.34 0 0 1 380 197.55h7.9c-4.93 5.17-5.09 13.12-5.09 13.12s8.22-.15 13.37-5.31a18.11 18.11 0 0 0 4.37-7.81h3.76a18.3 18.3 0 0 1 11.08 3.75 18.4 18.4 0 0 1 5.04 5.85c-4.39-2.08-8.8-2.17-8.8-2.17s.14 8.2 5.3 13.36a16.83 16.83 0 0 0 5.72 3.65v13.17c-4.98-3.3-11.03-3.41-11.03-3.41s.15 8.2 5.31 13.36a15.9 15.9 0 0 0 3.97 2.85 18.32 18.32 0 0 1-16.6 10.58h-7.79zm4.99-39.77s-8.22.15-13.37 5.3c-5.16 5.17-5.32 13.38-5.32 13.38s8.22-.15 13.37-5.31c5.16-5.16 5.31-13.37 5.31-13.37zm139.71-57h12.04c.52 0 1.03.03 1.54.08 2.21 4.03 4.32 8.12 6.34 12.27a17.6 17.6 0 0 0-3.03 2.4c-5.97 5.97-6.15 15.47-6.15 15.47s8.84-.18 14.83-5.56c1.69 3.93 3.29 7.9 4.8 11.9v4.96a19.53 19.53 0 0 0-6.6 4.21c-5.98 5.98-6.16 15.48-6.16 15.48s6.34-.12 11.91-3.41a18.34 18.34 0 0 1-17.48 12.8h-7.28c-.86-2.9-2.37-6.26-5.02-8.9-5.97-5.98-15.48-6.16-15.48-6.16s.19 9.07 5.77 15.06h-11.92a18.37 18.37 0 0 1-17.13-11.84 18.82 18.82 0 0 0 5.4-3.7c5.98-5.97 6.16-15.48 6.16-15.48s-7 .15-12.77 3.96v-15.25a19.53 19.53 0 0 0 6.62-4.22c5.97-5.97 6.15-15.48 6.15-15.48s-6.06.13-11.55 3.21c2.64-6.9 9.3-11.8 17.12-11.8h7.24c.86 2.93 2.36 6.34 5.06 9.04 5.97 5.97 15.48 6.15 15.48 6.15s-.18-9.2-5.89-15.2zm5.89 46.18s-.18-9.5-6.15-15.48c-5.97-5.97-15.48-6.15-15.48-6.15s.18 9.51 6.15 15.48c5.97 5.97 15.48 6.15 15.48 6.15zM407.83 76.03h17.1a32.75 32.75 0 0 1-10.77-7.4c2.86.73 5.04.77 5.04.77s-.16-8.64-5.59-14.07a19.1 19.1 0 0 0-8.3-4.62 32.56 32.56 0 0 1 3.15-19.53 291.66 291.66 0 0 1 54.41 29.24c-1.66.8-3.32 1.85-4.76 3.29-3.92 3.92-5.09 9.51-5.44 12.32-.13 1.07-.15 1.75-.15 1.75s3.87-.08 8.06-1.75a17.76 17.76 0 0 0 6.01-3.84 17.93 17.93 0 0 0 3.96-6.33 294.07 294.07 0 0 1 46.34 42.16c-3.78 5.32-3.91 12.07-3.91 12.07s6.13-.13 11.31-3.42a293.35 293.35 0 0 1 17.06 23 32.63 32.63 0 0 1-10.6 1.76h-6.05c3.23-5.16 3.35-11.21 3.35-11.21s-8.64.16-14.07 5.59a17.57 17.57 0 0 0-3.68 5.62h-49.43a17.62 17.62 0 0 0 5.72-3.72c5.43-5.43 5.6-14.07 5.6-14.07s-8.65.16-14.08 5.59c-3.87 3.87-5.06 9.36-5.42 12.2h-49.92c.1-.1.21-.18.31-.29 5.43-5.43 5.6-14.07 5.6-14.07s-8.65.16-14.08 5.6a19 19 0 0 0-4.55 8.06 32.76 32.76 0 0 1-16.74-9.27c2.86.72 5.04.77 5.04.77s-.16-8.65-5.59-14.08a19.1 19.1 0 0 0-8.3-4.61 32.56 32.56 0 0 1 .98-14.04c5.42 4.4 12.91 4.55 12.91 4.55s-.16-8.64-5.59-14.07c-.53-.53-1.1-1-1.67-1.43a32.64 32.64 0 0 1 23.76-12.46l-.25.22c-5.43 5.43-5.59 14.07-5.59 14.07s8.64-.16 14.07-5.59c2.63-2.62 4.01-5.98 4.75-8.76zm73.3 8.36s.16 8.64 5.59 14.07 14.07 5.6 14.07 5.6-.16-8.65-5.59-14.08-14.07-5.6-14.07-5.6zm0 28.17s.16 8.65 5.59 14.08 14.07 5.59 14.07 5.59-.16-8.65-5.59-14.08-14.07-5.59-14.07-5.59zm-28.6-.88s8.63-.16 14.06-5.59c5.43-5.42 5.6-14.07 5.6-14.07s-8.65.16-14.08 5.6c-5.43 5.42-5.59 14.06-5.59 14.06zm-24.74-47.6c5.43 5.44 14.07 5.6 14.07 5.6s-.16-8.64-5.59-14.07S422.2 50 422.2 50s.16 8.65 5.6 14.08zm-5.59 15.73s.16 8.64 5.6 14.07c5.42 5.43 14.06 5.59 14.06 5.59s-.16-8.64-5.59-14.07-14.07-5.6-14.07-5.6zm0 32.75s.16 8.65 5.6 14.08c5.42 5.43 14.06 5.59 14.06 5.59s-.16-8.65-5.59-14.08-14.07-5.59-14.07-5.59zM408.68 98.9s-8.65.16-14.08 5.59-5.59 14.07-5.59 14.07 8.65-.16 14.08-5.6c5.42-5.42 5.59-14.06 5.59-14.06zm-218.5 275.99a17.02 17.02 0 0 0 4.72 3.27v1.06a13.61 13.61 0 0 1-2.05 7.17l-.52.08-22.84-3.57c1.5-4 1.57-7.58 1.57-7.58s-8.64.17-14.07 5.6c-.6.6-1.13 1.24-1.6 1.9l-23.53 3.79-25.75-4.03c1.37-3.87 1.44-7.26 1.44-7.26s-8.64.17-14.07 5.6c-.81.8-1.5 1.69-2.09 2.6l-20 3.23-2.45-.39a13.58 13.58 0 0 1-2-6.63c0-.17-.03-.34-.03-.5v-1.57c4.94 2.7 10.32 2.82 10.32 2.82s-.16-8.64-5.6-14.07a17.02 17.02 0 0 0-4.66-3.25 13.61 13.61 0 0 1 2.08-6.23 13.67 13.67 0 0 1 11.53-6.35l.35-.02a13.6 13.6 0 0 0 11.24-6.44c1.2-1.94 1.94-4.2 2.04-6.62 2.56-.8 5.44-2.15 7.75-4.46 4.58-4.58 5.4-11.44 5.56-13.47l.38-.02h18.02c.24.28.48.56.74.83 5.44 5.43 14.08 5.59 14.08 5.59s-.07-2.92-1.17-6.42h14.34a13.67 13.67 0 0 1 7.18 2.06 16.68 16.68 0 0 0-4.1 2.95c-5.43 5.43-5.6 14.07-5.6 14.07s8.65-.16 14.08-5.59c.71-.7 1.33-1.48 1.87-2.27.15.8.23 1.6.23 2.45v3.7a13.67 13.67 0 0 0 13.67 13.66 13.61 13.61 0 0 1 9.58 3.93 13.65 13.65 0 0 1 4.05 9.1c-4.93-2.68-10.28-2.8-10.28-2.8s.16 8.65 5.59 14.08zm-82.63-27.74s-8.64.16-14.07 5.59-5.6 14.07-5.6 14.07 8.65-.16 14.08-5.6c5.43-5.42 5.59-14.06 5.59-14.06zm33.19 33.33s-.16-8.65-5.6-14.08c-5.42-5.43-14.06-5.59-14.06-5.59s.16 8.65 5.59 14.08c5.42 5.43 14.07 5.59 14.07 5.59zm0-28.18s-.16-8.64-5.6-14.07c-5.42-5.43-14.06-5.6-14.06-5.6s.16 8.65 5.59 14.08c5.42 5.43 14.07 5.6 14.07 5.6zm30.32-5.15s-8.64.16-14.07 5.59-5.6 14.07-5.6 14.07 8.65-.16 14.08-5.6c5.43-5.42 5.59-14.06 5.59-14.06zm350.18 27.74a17.02 17.02 0 0 0 4.72 3.27v1.06c0 .62-.05 1.23-.13 1.83l-.91-.14-25.26 4.07c2.37-4.74 2.46-9.66 2.46-9.66s-8.64.16-14.07 5.6a16.33 16.33 0 0 0-2.59 3.42l-21.02-3.3-28.66 4.63a25.1 25.1 0 0 0 2.83-10.35s-8.64.16-14.07 5.6c-.96.95-1.75 2.01-2.4 3.11l-18.18-2.84-5.67.91c-.2-.93-.31-1.89-.31-2.88v-1.56c4.94 2.7 10.31 2.82 10.31 2.82s-.16-8.65-5.59-14.08a17.02 17.02 0 0 0-4.67-3.24 13.66 13.66 0 0 1 13.61-12.58c7.35 0 13.33-5.81 13.64-13.08a18.8 18.8 0 0 0 7.74-4.46c4.59-4.58 5.41-11.44 5.56-13.47l.39-.02H457c.24.27.47.55.73.8 5.43 5.44 14.07 5.6 14.07 5.6s-.06-2.9-1.16-6.4h14.33a13.72 13.72 0 0 1 3.7.52c1.24.35 2.4.87 3.48 1.53a16.65 16.65 0 0 0-4.1 2.96c-5.43 5.43-5.59 14.07-5.59 14.07s8.65-.16 14.08-5.59c.7-.71 1.32-1.48 1.87-2.28.14.8.23 1.62.23 2.46v3.7a13.6 13.6 0 0 0 11.27 13.43c.78.14 1.58.23 2.4.23a13.59 13.59 0 0 1 8.31 2.84 13.63 13.63 0 0 1 5.31 10.2c-4.92-2.7-10.28-2.8-10.28-2.8s.16 8.64 5.59 14.07zm-82.63-27.74s-8.64.16-14.07 5.59-5.59 14.07-5.59 14.07 8.64-.16 14.07-5.6c5.43-5.42 5.6-14.06 5.6-14.06zm33.2 33.33s-.17-8.65-5.6-14.08-14.07-5.59-14.07-5.59.16 8.65 5.59 14.08 14.07 5.59 14.07 5.59zm0-28.18s-.17-8.64-5.6-14.07-14.07-5.6-14.07-5.6.16 8.65 5.59 14.08 14.07 5.6 14.07 5.6zm30.31-5.15s-8.64.16-14.07 5.59-5.59 14.07-5.59 14.07 8.64-.16 14.07-5.6c5.43-5.42 5.6-14.06 5.6-14.06zm-155.95 24.31c-3.7-2.02-7.71-2.1-7.71-2.1s.12 6.48 4.19 10.55c.62.62 1.3 1.14 2 1.6l-1.15-.19-15.73 2.54c.51-2.06.54-3.62.54-3.62s-6.48.12-10.55 4.2c-.38.37-.72.78-1.04 1.2l-3.45.56-30.24-4.74-2.5.4c.14-.99.15-1.62.15-1.62s-5.24.1-9.26 3.1l-18.62 3-2.19-.35c-.26-.9-.4-1.85-.4-2.83V382c3.7 2.03 7.73 2.11 7.73 2.11s-.12-6.48-4.2-10.55a12.74 12.74 0 0 0-3.5-2.43 10.2 10.2 0 0 1 10.21-9.44 10.25 10.25 0 0 0 10.22-9.81 14.1 14.1 0 0 0 5.82-3.34c3.44-3.44 4.05-8.58 4.16-10.1l.3-.01h12.8c.38.52.8 1.03 1.27 1.5 4.07 4.07 10.55 4.2 10.55 4.2s-.06-2.7-1.18-5.7h11.06c1.97 0 3.81.57 5.38 1.54a12.47 12.47 0 0 0-3.08 2.21c-4.07 4.07-4.19 10.55-4.19 10.55s6.48-.12 10.55-4.19c.54-.53 1-1.1 1.4-1.7.12.6.18 1.2.18 1.83v2.78c0 2.72 1.07 5.2 2.81 7.03a10.2 10.2 0 0 0 7.44 3.21c5.5 0 9.98 4.34 10.23 9.78zm-65.49-12.35s-6.48.12-10.55 4.2c-4.07 4.06-4.2 10.54-4.2 10.54s6.49-.12 10.56-4.19 4.2-10.55 4.2-10.55zm24.9 25s-.13-6.49-4.2-10.56-10.55-4.2-10.55-4.2.12 6.5 4.19 10.56c4.07 4.07 10.55 4.2 10.55 4.2zm0-21.14s-.13-6.48-4.2-10.55-10.55-4.2-10.55-4.2.12 6.49 4.19 10.56 10.55 4.2 10.55 4.2zm22.73-3.86s-6.48.12-10.55 4.2c-4.07 4.06-4.2 10.54-4.2 10.54s6.49-.12 10.56-4.19 4.2-10.55 4.2-10.55zm262.2-57.16c0 1.69-.03 3.36-.06 5.04-2.98.46-7.95 1.74-11.54 5.33-2.62 2.62-4 5.98-4.74 8.77h-48.31l.32-.29c5.43-5.43 5.59-14.07 5.59-14.07s-8.65.16-14.08 5.59a19 19 0 0 0-4.55 8.06l-.55-.13a32.52 32.52 0 0 1-16.19-9.14c2.86.73 5.04.77 5.04.77s-.16-8.64-5.59-14.07a19.1 19.1 0 0 0-8.3-4.62 32.68 32.68 0 0 1 .97-14.04c5.43 4.41 12.92 4.56 12.92 4.56s-.16-8.65-5.59-14.08c-.53-.52-1.1-.99-1.67-1.42a32.64 32.64 0 0 1 23.76-12.46l-.25.22c-5.43 5.43-5.59 14.07-5.59 14.07s8.64-.16 14.07-5.59c2.62-2.62 4.01-5.98 4.75-8.77h47.16l-.32.29c-5.43 5.43-5.59 14.07-5.59 14.07s8.65-.16 14.08-5.59a15 15 0 0 0 1.6-1.91 293.1 293.1 0 0 1 1.8 16.94c-2.71.76-5.92 2.14-8.45 4.66-5.43 5.43-5.59 14.08-5.59 14.08s8.64-.17 14.07-5.6c.23-.22.43-.46.64-.7.11 3.33.2 6.67.2 10.03zm-58.74-23.4s-8.65.16-14.08 5.6c-5.43 5.42-5.59 14.06-5.59 14.06s8.65-.16 14.08-5.59 5.59-14.07 5.59-14.07zm33.18 33.33s-.16-8.64-5.59-14.07-14.07-5.59-14.07-5.59.16 8.64 5.6 14.07c5.42 5.43 14.06 5.6 14.06 5.6zm0-28.17s-.16-8.65-5.59-14.08-14.07-5.59-14.07-5.59.16 8.65 5.6 14.08c5.42 5.43 14.06 5.59 14.06 5.59zm22.13 37.38h2.8c.08-1.33.18-2.64.24-3.97-.72 1.3-1.6 2.56-2.73 3.68l-.31.29z"/>
  <path fill="#0984E3" d="M554.45 420.92c-7.2-1.8-13.81-4.14-28.01-4.14-25.39 0-25.39 6.5-50.77 6.5-22.55 0-25.08-5.13-43.17-6.27l2.3 4.7.01-.01h10.84c0 4.1-1.43 7.86-3.82 10.82h10.06a7.68 7.68 0 0 1 0 15.36h-47.04a7.68 7.68 0 0 1 0-15.36h10.06a17.2 17.2 0 0 1-3.82-10.82h10.84v.01l2.42-4.92c-24.8.1-25.01 6.49-50.2 6.49-25.38 0-25.38-6.5-50.76-6.5s-25.38 6.5-50.75 6.5c-25.38 0-25.38-6.5-50.75-6.5-25.38 0-25.38 6.5-50.76 6.5s-25.38-6.5-50.76-6.5-25.38 6.5-50.76 6.5c-14.34 0-20.1-2.06-27.39-3.87a15.08 15.08 0 0 0 14.67 18.52h47.55a7.27 7.27 0 1 1 0 14.53H88.79a14.9 14.9 0 1 0 0 29.8h101.4a5.16 5.16 0 0 1 0 10.3H126.6a13.75 13.75 0 1 0 0 27.5h162.13a5.16 5.16 0 0 1 5.16 5.16v.57a5.16 5.16 0 0 1-5.16 5.16H154.39a8.3 8.3 0 1 0 0 16.61h78.2a5.16 5.16 0 1 1 0 10.32h-29.8a9.74 9.74 0 1 0 0 19.47h53.97a10.8 10.8 0 0 1 10.8 10.8 5.62 5.62 0 0 0 2.64 4.77c3.87.37 7.75.66 11.66.88h32.67c5.22-.29 10.4-.72 15.54-1.27a8.21 8.21 0 0 0 3.84-6.95 8.22 8.22 0 0 1 8.22-8.23h19.93a9.74 9.74 0 1 0 0-19.47H327.7a5.16 5.16 0 1 1 0-10.32h103.98a8.3 8.3 0 1 0 0-16.6h-46.7a5.16 5.16 0 0 1-5.15-5.17v-.57c0-2.85 2.3-5.15 5.16-5.15H477a13.75 13.75 0 0 0 0-27.5h-23.86a4.58 4.58 0 0 1 0-9.17h55.57a7.45 7.45 0 1 0 0-14.9h-33.8a3.44 3.44 0 1 1 0-6.87H494c6.54 0 11.85-5.3 11.85-11.85s5.3-11.85 11.85-11.85h21.8a15.08 15.08 0 0 0 14.94-17.02zm-449.48 50.3H89.7c-3.7 0-3.69-5.73 0-5.73h15.28c3.69 0 3.68 5.73 0 5.73zm13 0c-3.7 0-3.7-5.73 0-5.73 3.68 0 3.68 5.73 0 5.73zm69.24-4.8h-47.04a7.68 7.68 0 1 1 0-15.36h10.06a17.2 17.2 0 0 1-3.82-10.83h10.84v.02l6.44-13.13 6.43 13.13.01-.02h10.84c0 4.1-1.43 7.86-3.82 10.83h10.06a7.68 7.68 0 0 1 0 15.36zm172.9-28.18h19.86c3.69 0 3.68 5.73 0 5.73H360.1c-3.7 0-3.7-5.73 0-5.73zm-23.68 0h9.16c3.7 0 3.69 5.73 0 5.73h-9.16c-3.7 0-3.7-5.73 0-5.73zm-116.11 70.1h-43.54c-3.7 0-3.69-5.74 0-5.74h43.54c3.7 0 3.69 5.73 0 5.73zm12-36.2h-10.47c-3.7 0-3.69-5.73 0-5.73h10.47c3.69 0 3.68 5.72 0 5.72zm13.2 0c-3.69 0-3.68-5.73 0-5.73 3.7 0 3.7 5.72 0 5.72zm39.34 65.2c3.7 0 3.7 5.72 0 5.72-3.69 0-3.68-5.73 0-5.73zm-28.26 0h18.72c3.69 0 3.68 5.72 0 5.72H256.6c-3.69 0-3.68-5.73 0-5.73zm-1.9 29.07c-3.7 0-3.7-5.73 0-5.73h43.53c3.7 0 3.69 5.73 0 5.73H254.7zm35.82 18.1c-3.69 0-3.68-5.73 0-5.73 3.7 0 3.69 5.73 0 5.73zm28.27 0h-18.27c-3.69 0-3.68-5.73 0-5.73h18.27c3.69 0 3.68 5.73 0 5.73zm15.34-73.31H309.7c-3.7 0-3.69-5.73 0-5.73h24.44c3.7 0 3.69 5.73 0 5.73zm19.1 31.1c-3.7 0-3.69-5.73 0-5.73 3.7 0 3.69 5.72 0 5.72zm43.54-5.73c3.7 0 3.69 5.72 0 5.72h-26.73c-3.7 0-3.69-5.72 0-5.72h26.73zm7.26-44H272.69a5.16 5.16 0 1 1 0-10.31h6.3a14.9 14.9 0 0 0 0-29.8h-36.27a7.27 7.27 0 1 1 0-14.53h51.92c6.54 0 11.85 5.3 11.85 11.85s5.3 11.86 11.85 11.86h69.5a4.58 4.58 0 0 1 4.58 4.58v3.44a4.58 4.58 0 0 1-4.58 4.58H331.7a4.58 4.58 0 0 0 0 9.16h72.33a4.58 4.58 0 0 1 0 9.17zm8.78-28.44h26.74c3.69 0 3.68 5.73 0 5.73H412.8c-3.7 0-3.69-5.73 0-5.73zm14.51 44.2h-13.75c-3.69 0-3.68-5.73 0-5.73h13.75c3.7 0 3.7 5.73 0 5.73zm29.8-5.73c3.69 0 3.68 5.73 0 5.73h-17.57c-3.7 0-3.69-5.73 0-5.73h17.57zm6.87-46.49c-3.7 0-3.69-5.73 0-5.73 3.7 0 3.69 5.73 0 5.73zm28.26 0h-15.27c-3.7 0-3.69-5.73 0-5.73h15.27c3.7 0 3.69 5.73 0 5.73z"/>
</svg>
